<svg width="45" height="45" viewBox="0 0 45 45" fill="none" xmlns="http://www.w3.org/2000/svg">
<circle cx="22.5" cy="22.5" r="22.5" fill="#08024B"/>
<path d="M22.5 3.75C12.1612 3.75 3.75 12.1612 3.75 22.5C3.75 32.8388 12.1612 41.25 22.5 41.25C32.8388 41.25 41.25 32.8388 41.25 22.5C41.25 12.1612 32.8388 3.75 22.5 3.75ZM22.5 38.9062C13.4536 38.9062 6.09376 31.5464 6.09376 22.5C6.09376 13.4536 13.4536 6.09376 22.5 6.09376C31.5464 6.09376 38.9062 13.4535 38.9062 22.5C38.9062 31.5464 31.5464 38.9062 22.5 38.9062ZM32.9004 22.5C32.9004 23.1472 32.3757 23.6719 31.7286 23.6719H23.6719V31.7286C23.6719 32.3758 23.1472 32.9004 22.5 32.9004C21.8528 32.9004 21.3281 32.3758 21.3281 31.7286V23.6719H13.2714C12.6243 23.6719 12.0996 23.1472 12.0996 22.5C12.0996 21.8528 12.6243 21.3281 13.2714 21.3281H21.3281V13.2714C21.3281 12.6242 21.8528 12.0996 22.5 12.0996C23.1472 12.0996 23.6719 12.6242 23.6719 13.2714V21.3281H31.7286C32.3757 21.3281 32.9004 21.8528 32.9004 22.5Z" fill="white"/>
</svg>
