<svg width="70" height="70" viewBox="0 0 70 70" fill="none" xmlns="http://www.w3.org/2000/svg">
<circle cx="35" cy="35" r="35" fill="#08024B"/>
<path d="M34.9999 5.83301C18.9174 5.83301 5.83325 18.9172 5.83325 34.9997C5.83325 51.0822 18.9174 64.1663 34.9999 64.1663C51.0824 64.1663 64.1666 51.0823 64.1666 34.9997C64.1666 18.917 51.0824 5.83301 34.9999 5.83301ZM34.9999 60.5205C20.9277 60.5205 9.4791 49.0718 9.4791 34.9997C9.4791 20.9275 20.9277 9.47886 34.9999 9.47886C49.0721 9.47886 60.5207 20.9274 60.5207 34.9997C60.5207 49.0718 49.0721 60.5205 34.9999 60.5205ZM51.1784 34.9997C51.1784 36.0065 50.3622 36.8226 49.3554 36.8226H36.8228V49.3552C36.8228 50.362 36.0066 51.1781 34.9999 51.1781C33.9932 51.1781 33.177 50.362 33.177 49.3552V36.8226H20.6444C19.6377 36.8226 18.8215 36.0065 18.8215 34.9997C18.8215 33.9928 19.6377 33.1768 20.6444 33.1768H33.177V20.6441C33.177 19.6373 33.9932 18.8212 34.9999 18.8212C36.0066 18.8212 36.8228 19.6373 36.8228 20.6441V33.1768H49.3554C50.3622 33.1768 51.1784 33.993 51.1784 34.9997Z" fill="white"/>
</svg>
