<svg width="25" height="24" viewBox="0 0 25 24" fill="none" xmlns="http://www.w3.org/2000/svg">
<path d="M16 9.33333L14.6853 9.11467C14.6536 9.30559 14.6638 9.50114 14.7152 9.68772C14.7667 9.87431 14.8581 10.0475 14.9832 10.1951C15.1083 10.3428 15.2641 10.4615 15.4397 10.5429C15.6152 10.6244 15.8065 10.6666 16 10.6667V9.33333ZM1.33333 9.33333V8C0.979711 8 0.640573 8.14048 0.390524 8.39052C0.140476 8.64057 0 8.97971 0 9.33333H1.33333ZM4 24H19.1467V21.3333H4V24ZM20.7467 8H16V10.6667H20.7467V8ZM17.316 9.552L18.3893 3.10533L15.76 2.66667L14.6853 9.11467L17.316 9.552ZM15.76 0H15.4747V2.66667H15.76V0ZM11.036 2.37467L7.684 7.40667L9.90267 8.88667L13.2573 3.85467L11.036 2.37467ZM6.57333 8H1.33333V10.6667H6.57333V8ZM0 9.33333V20H2.66667V9.33333H0ZM23.0693 20.784L24.6693 12.784L22.056 12.2613L20.456 20.2613L23.0693 20.784ZM7.684 7.40667C7.5622 7.58922 7.39589 7.73889 7.20238 7.84239C7.00886 7.9459 6.79279 8.00003 6.57333 8V10.6667C7.23182 10.6666 7.88012 10.504 8.46067 10.1933C9.04123 9.88251 9.53609 9.43324 9.90133 8.88533L7.684 7.40667ZM18.3893 3.10533C18.453 2.72338 18.4328 2.33214 18.33 1.95881C18.2272 1.58548 18.0443 1.23901 17.7941 0.943488C17.5439 0.647968 17.2323 0.410487 16.881 0.247554C16.5298 0.0846217 16.1472 0.000146011 15.76 0V2.66667L18.3893 3.10533ZM20.7467 10.6667C20.944 10.6666 21.1388 10.7103 21.3172 10.7946C21.4956 10.879 21.653 11.0019 21.7781 11.1544C21.9032 11.307 21.9929 11.4854 22.0408 11.6768C22.0886 11.8682 22.0947 12.0679 22.056 12.2613L24.6693 12.784C24.7853 12.2038 24.7711 11.6051 24.6278 11.031C24.4845 10.457 24.2156 9.92188 23.8405 9.46428C23.4654 9.00668 22.9935 8.63799 22.4587 8.38479C21.9239 8.13158 21.3397 8.00016 20.748 8L20.7467 10.6667ZM19.1467 24C20.0715 24.0001 20.9678 23.6796 21.683 23.0933C22.3982 22.5069 22.8881 21.6909 23.0693 20.784L20.456 20.2613C20.3955 20.5639 20.2319 20.8362 19.9932 21.0317C19.7544 21.2271 19.4552 21.3338 19.1467 21.3333V24ZM15.4747 0C14.5967 1.50039e-05 13.7324 0.216766 12.9583 0.631015C12.1842 1.04526 11.523 1.6442 11.036 2.37467L13.2573 3.85467C13.5008 3.48931 13.8293 3.18971 14.2164 2.98247C14.6034 2.77522 15.0356 2.66675 15.4747 2.66667V0ZM4 21.3333C3.64638 21.3333 3.30724 21.1929 3.05719 20.9428C2.80714 20.6928 2.66667 20.3536 2.66667 20H0C0 21.0609 0.421427 22.0783 1.17157 22.8284C1.92172 23.5786 2.93913 24 4 24V21.3333Z" fill="#1758AE"/>
<path d="M6.66699 9.3335V22.6668" stroke="#1758AE" stroke-width="2.66667"/>
</svg>
