<svg width="50" height="50" viewBox="0 0 50 50" fill="none" xmlns="http://www.w3.org/2000/svg">
<path d="M31.25 20.8333L29.1958 20.4917C29.1462 20.79 29.1622 21.0955 29.2426 21.3871C29.3229 21.6786 29.4658 21.9491 29.6613 22.1799C29.8568 22.4107 30.1001 22.5961 30.3745 22.7233C30.6488 22.8505 30.9476 22.9165 31.25 22.9167V20.8333ZM8.33333 20.8333V18.75C7.7808 18.75 7.25089 18.9695 6.86019 19.3602C6.46949 19.7509 6.25 20.2808 6.25 20.8333H8.33333ZM12.5 43.75H36.1667V39.5833H12.5V43.75ZM38.6667 18.75H31.25V22.9167H38.6667V18.75ZM33.3062 21.175L34.9833 11.1021L30.875 10.4167L29.1958 20.4917L33.3062 21.175ZM30.875 6.25H30.4292V10.4167H30.875V6.25ZM23.4937 9.96042L18.2562 17.8229L21.7229 20.1354L26.9646 12.2729L23.4937 9.96042ZM16.5208 18.75H8.33333V22.9167H16.5208V18.75ZM6.25 20.8333V37.5H10.4167V20.8333H6.25ZM42.2958 38.725L44.7958 26.225L40.7125 25.4083L38.2125 37.9083L42.2958 38.725ZM18.2562 17.8229C18.0659 18.1082 17.8061 18.342 17.5037 18.5037C17.2013 18.6655 16.8637 18.7501 16.5208 18.75V22.9167C17.5497 22.9166 18.5627 22.6625 19.4698 22.177C20.3769 21.6914 21.1501 20.9894 21.7208 20.1333L18.2562 17.8229ZM34.9833 11.1021C35.0829 10.5053 35.0512 9.89398 34.8906 9.31064C34.73 8.72731 34.4443 8.18595 34.0533 7.7242C33.6624 7.26245 33.1755 6.89139 32.6266 6.6368C32.0778 6.38222 31.48 6.25023 30.875 6.25V10.4167L34.9833 11.1021ZM38.6667 22.9167C38.9749 22.9165 39.2794 22.9848 39.5581 23.1166C39.8368 23.2484 40.0828 23.4404 40.2783 23.6788C40.4738 23.9171 40.614 24.1959 40.6887 24.495C40.7634 24.7941 40.7729 25.106 40.7125 25.4083L44.7958 26.225C44.977 25.3184 44.9549 24.383 44.7309 23.486C44.507 22.589 44.0868 21.7529 43.5007 21.0379C42.9147 20.3229 42.1773 19.7469 41.3417 19.3512C40.5062 18.9556 39.5932 18.7502 38.6688 18.75L38.6667 22.9167ZM36.1667 43.75C37.6117 43.7501 39.0121 43.2494 40.1296 42.3333C41.2471 41.4171 42.0126 40.142 42.2958 38.725L38.2125 37.9083C38.118 38.3811 37.8624 38.8065 37.4894 39.112C37.1163 39.4174 36.6488 39.584 36.1667 39.5833V43.75ZM30.4292 6.25C29.0574 6.25002 27.7068 6.5887 26.4973 7.23596C25.2878 7.88323 24.2548 8.81906 23.4937 9.96042L26.9646 12.2729C27.345 11.702 27.8583 11.2339 28.4631 10.9101C29.0678 10.5863 29.7432 10.4168 30.4292 10.4167V6.25ZM12.5 39.5833C11.9475 39.5833 11.4176 39.3638 11.0269 38.9731C10.6362 38.5824 10.4167 38.0525 10.4167 37.5H6.25C6.25 39.1576 6.90848 40.7473 8.08058 41.9194C9.25269 43.0915 10.8424 43.75 12.5 43.75V39.5833Z" fill="#60BAFA"/>
<path d="M16.6665 20.8333V41.6667" stroke="#60BAFA" stroke-width="4.16667"/>
</svg>
