<svg width="96" height="96" viewBox="0 0 96 96" fill="none" xmlns="http://www.w3.org/2000/svg">
<circle cx="48" cy="48" r="48" fill="#E30014"/>
<path d="M36.555 72.125H61.445C66.297 72.125 68.711 69.664 68.711 64.789V43.508C68.711 40.484 68.383 39.172 66.508 37.25L53.57 24.102C51.79 22.273 50.336 21.875 47.688 21.875H36.555C31.727 21.875 29.289 24.359 29.289 29.235V64.789C29.289 69.687 31.727 72.125 36.555 72.125ZM36.742 68.352C34.328 68.352 33.062 67.062 33.062 64.719V29.305C33.062 26.985 34.328 25.648 36.766 25.648H47.172V39.266C47.172 42.219 48.672 43.672 51.578 43.672H64.938V64.719C64.938 67.062 63.695 68.352 61.258 68.352H36.742ZM52 40.132C51.086 40.132 50.71 39.758 50.71 38.82V26.375L64.21 40.133L52 40.132ZM57.625 50.117H39.835C38.992 50.117 38.383 50.75 38.383 51.547C38.383 52.367 38.993 53 39.836 53H57.625C57.8167 53.0031 58.007 52.9676 58.1847 52.8957C58.3624 52.8238 58.5238 52.7169 58.6594 52.5814C58.7949 52.4458 58.9018 52.2844 58.9737 52.1067C59.0457 51.929 59.0811 51.7387 59.078 51.547C59.078 50.75 58.445 50.117 57.625 50.117ZM57.625 58.297H39.835C38.992 58.297 38.383 58.953 38.383 59.773C38.383 60.57 38.993 61.18 39.836 61.18H57.625C58.445 61.18 59.078 60.57 59.078 59.773C59.078 58.953 58.445 58.297 57.625 58.297Z" fill="white"/>
</svg>
