<svg width="21" height="20" viewBox="0 0 21 20" fill="none" xmlns="http://www.w3.org/2000/svg">
<path d="M13.291 7.75307L12.1989 7.57143C12.1725 7.73003 12.181 7.89247 12.2237 8.04746C12.2665 8.20245 12.3424 8.34628 12.4464 8.46896C12.5503 8.59164 12.6797 8.69022 12.8255 8.75786C12.9714 8.8255 13.1302 8.86058 13.291 8.86065V7.75307ZM1.10758 7.75307V6.64549C0.813833 6.64549 0.532115 6.76218 0.324403 6.96989C0.116691 7.17761 0 7.45932 0 7.75307H1.10758ZM3.32275 19.9365H15.9049V17.7213H3.32275V19.9365ZM17.234 6.64549H13.291V8.86065H17.234V6.64549ZM14.3842 7.93472L15.2758 2.57956L13.0916 2.21516L12.1989 7.57143L14.3842 7.93472ZM13.0916 0H12.8546V2.21516H13.0916V0ZM9.16745 1.9726L6.38299 6.15262L8.22601 7.38203L11.0127 3.20202L9.16745 1.9726ZM5.46038 6.64549H1.10758V8.86065H5.46038V6.64549ZM0 7.75307V16.6137H2.21516V7.75307H0ZM19.1634 17.265L20.4925 10.6195L18.3216 10.1853L16.9925 16.8308L19.1634 17.265ZM6.38299 6.15262C6.28182 6.30426 6.14367 6.42859 5.98292 6.51457C5.82217 6.60055 5.64268 6.64552 5.46038 6.64549V8.86065C6.00738 8.86061 6.5459 8.72553 7.02817 8.4674C7.51043 8.20927 7.9215 7.83607 8.2249 7.38092L6.38299 6.15262ZM15.2758 2.57956C15.3287 2.26228 15.3119 1.93728 15.2265 1.62716C15.1411 1.31703 14.9892 1.02923 14.7813 0.783743C14.5735 0.538258 14.3147 0.340986 14.0229 0.20564C13.7311 0.0702941 13.4133 0.00012129 13.0916 0V2.21516L15.2758 2.57956ZM17.234 8.86065C17.3979 8.86059 17.5597 8.8969 17.7079 8.96696C17.8561 9.03703 17.9868 9.1391 18.0908 9.26582C18.1947 9.39254 18.2692 9.54075 18.309 9.69976C18.3487 9.85876 18.3537 10.0246 18.3216 10.1853L20.4925 10.6195C20.5888 10.1375 20.577 9.64019 20.458 9.16334C20.3389 8.68648 20.1155 8.24197 19.804 7.86185C19.4924 7.48173 19.1004 7.17546 18.6561 6.96513C18.2119 6.75479 17.7266 6.64562 17.2351 6.64549L17.234 8.86065ZM15.9049 19.9365C16.6731 19.9365 17.4176 19.6704 18.0117 19.1833C18.6058 18.6962 19.0128 18.0183 19.1634 17.265L16.9925 16.8308C16.9423 17.0822 16.8064 17.3083 16.6081 17.4707C16.4097 17.6331 16.1612 17.7217 15.9049 17.7213V19.9365ZM12.8546 0C12.1253 1.24635e-05 11.4073 0.180064 10.7643 0.524176C10.1213 0.868287 9.57203 1.36581 9.16745 1.9726L11.0127 3.20202C11.2149 2.89852 11.4878 2.64965 11.8093 2.4775C12.1309 2.30534 12.4899 2.21523 12.8546 2.21516V0ZM3.32275 17.7213C3.029 17.7213 2.74728 17.6046 2.53957 17.3969C2.33185 17.1892 2.21516 16.9075 2.21516 16.6137H0C0 17.495 0.350074 18.3401 0.97321 18.9633C1.59635 19.5864 2.4415 19.9365 3.32275 19.9365V17.7213Z" fill="#60BAFA"/>
<path d="M5.53809 7.75311V18.8289" stroke="#60BAFA" stroke-width="2.21516"/>
</svg>
