<svg width="50" height="50" viewBox="0 0 50 50" fill="none" xmlns="http://www.w3.org/2000/svg">
<path d="M31.25 29.1667L29.1958 29.5083C29.1462 29.21 29.1622 28.9045 29.2426 28.6129C29.3229 28.3214 29.4658 28.0509 29.6613 27.8201C29.8568 27.5893 30.1001 27.4039 30.3745 27.2767C30.6488 27.1495 30.9476 27.0835 31.25 27.0833V29.1667ZM8.33333 29.1667V31.25C7.7808 31.25 7.25089 31.0305 6.86019 30.6398C6.46949 30.2491 6.25 29.7192 6.25 29.1667H8.33333ZM12.5 6.25H36.1667V10.4167H12.5V6.25ZM38.6667 31.25H31.25V27.0833H38.6667V31.25ZM33.3062 28.825L34.9833 38.8979L30.875 39.5833L29.1958 29.5083L33.3062 28.825ZM30.875 43.75H30.4292V39.5833H30.875V43.75ZM23.4937 40.0396L18.2562 32.1771L21.7229 29.8646L26.9646 37.7271L23.4937 40.0396ZM16.5208 31.25H8.33333V27.0833H16.5208V31.25ZM6.25 29.1667V12.5H10.4167V29.1667H6.25ZM42.2958 11.275L44.7958 23.775L40.7125 24.5917L38.2125 12.0917L42.2958 11.275ZM18.2562 32.1771C18.0659 31.8918 17.8061 31.658 17.5037 31.4963C17.2013 31.3345 16.8637 31.2499 16.5208 31.25V27.0833C17.5497 27.0834 18.5627 27.3375 19.4698 27.823C20.3769 28.3086 21.1501 29.0106 21.7208 29.8667L18.2562 32.1771ZM34.9833 38.8979C35.0829 39.4947 35.0512 40.106 34.8906 40.6894C34.73 41.2727 34.4443 41.814 34.0533 42.2758C33.6624 42.7376 33.1755 43.1086 32.6266 43.3632C32.0778 43.6178 31.48 43.7498 30.875 43.75V39.5833L34.9833 38.8979ZM38.6667 27.0833C38.9749 27.0835 39.2794 27.0152 39.5581 26.8834C39.8368 26.7516 40.0828 26.5596 40.2783 26.3212C40.4738 26.0829 40.614 25.8041 40.6887 25.505C40.7634 25.2059 40.7729 24.894 40.7125 24.5917L44.7958 23.775C44.977 24.6816 44.9549 25.617 44.7309 26.514C44.507 27.411 44.0868 28.2471 43.5007 28.9621C42.9147 29.6771 42.1773 30.2531 41.3417 30.6488C40.5062 31.0444 39.5932 31.2498 38.6688 31.25L38.6667 27.0833ZM36.1667 6.25C37.6117 6.24991 39.0121 6.75055 40.1296 7.66673C41.2471 8.5829 42.0126 9.85799 42.2958 11.275L38.2125 12.0917C38.118 11.6189 37.8624 11.1935 37.4894 10.888C37.1163 10.5826 36.6488 10.416 36.1667 10.4167V6.25ZM30.4292 43.75C29.0574 43.75 27.7068 43.4113 26.4973 42.764C25.2878 42.1168 24.2548 41.1809 23.4937 40.0396L26.9646 37.7271C27.345 38.298 27.8583 38.7661 28.4631 39.0899C29.0678 39.4137 29.7432 39.5832 30.4292 39.5833V43.75ZM12.5 10.4167C11.9475 10.4167 11.4176 10.6362 11.0269 11.0269C10.6362 11.4176 10.4167 11.9475 10.4167 12.5H6.25C6.25 10.8424 6.90848 9.25269 8.08058 8.08058C9.25269 6.90848 10.8424 6.25 12.5 6.25V10.4167Z" fill="#60BAFA"/>
<path d="M16.6665 29.1667V8.33332" stroke="#60BAFA" stroke-width="4.16667"/>
</svg>
