<svg width="21" height="20" viewBox="0 0 21 20" fill="none" xmlns="http://www.w3.org/2000/svg">
<path d="M13.291 12.1834L12.1989 12.365C12.1725 12.2064 12.181 12.044 12.2237 11.889C12.2665 11.734 12.3424 11.5902 12.4464 11.4675C12.5503 11.3448 12.6797 11.2462 12.8255 11.1786C12.9714 11.111 13.1302 11.0759 13.291 11.0758V12.1834ZM1.10758 12.1834V13.291C0.813833 13.291 0.532115 13.1743 0.324403 12.9666C0.116691 12.7589 0 12.4771 0 12.1834H1.10758ZM3.32275 7.15256e-07H15.9049V2.21516H3.32275V7.15256e-07ZM17.234 13.291H13.291V11.0758H17.234V13.291ZM14.3842 12.0018L15.2758 17.3569L13.0916 17.7213L12.1989 12.365L14.3842 12.0018ZM13.0916 19.9365H12.8546V17.7213H13.0916V19.9365ZM9.16745 17.9639L6.38299 13.7839L8.22601 12.5544L11.0127 16.7345L9.16745 17.9639ZM5.46038 13.291H1.10758V11.0758H5.46038V13.291ZM0 12.1834V3.32275H2.21516V12.1834H0ZM19.1634 2.67149L20.4925 9.31698L18.3216 9.75115L16.9925 3.10566L19.1634 2.67149ZM6.38299 13.7839C6.28182 13.6322 6.14367 13.5079 5.98292 13.4219C5.82217 13.3359 5.64268 13.291 5.46038 13.291V11.0758C6.00738 11.0759 6.5459 11.2109 7.02817 11.4691C7.51043 11.7272 7.9215 12.1004 8.2249 12.5555L6.38299 13.7839ZM15.2758 17.3569C15.3287 17.6742 15.3119 17.9992 15.2265 18.3093C15.1411 18.6194 14.9892 18.9072 14.7813 19.1527C14.5735 19.3982 14.3147 19.5955 14.0229 19.7308C13.7311 19.8662 13.4133 19.9364 13.0916 19.9365V17.7213L15.2758 17.3569ZM17.234 11.0758C17.3979 11.0759 17.5597 11.0396 17.7079 10.9695C17.8561 10.8994 17.9868 10.7974 18.0908 10.6707C18.1947 10.5439 18.2692 10.3957 18.309 10.2367C18.3487 10.0777 18.3537 9.91187 18.3216 9.75115L20.4925 9.31698C20.5888 9.79894 20.577 10.2963 20.458 10.7731C20.3389 11.25 20.1155 11.6945 19.804 12.0746C19.4924 12.4547 19.1004 12.761 18.6561 12.9713C18.2119 13.1817 17.7266 13.2908 17.2351 13.291L17.234 11.0758ZM15.9049 7.15256e-07C16.6731 -4.75078e-05 17.4176 0.266113 18.0117 0.753186C18.6058 1.24026 19.0128 1.91815 19.1634 2.67149L16.9925 3.10566C16.9423 2.8543 16.8064 2.62814 16.6081 2.46576C16.4097 2.30337 16.1612 2.21481 15.9049 2.21516V7.15256e-07ZM12.8546 19.9365C12.1253 19.9365 11.4073 19.7564 10.7643 19.4123C10.1213 19.0682 9.57203 18.5707 9.16745 17.9639L11.0127 16.7345C11.2149 17.038 11.4878 17.2868 11.8093 17.459C12.1309 17.6311 12.4899 17.7212 12.8546 17.7213V19.9365ZM3.32275 2.21516C3.029 2.21516 2.74728 2.33185 2.53957 2.53957C2.33185 2.74728 2.21516 3.029 2.21516 3.32275H0C0 2.4415 0.350074 1.59635 0.97321 0.97321C1.59635 0.350074 2.4415 7.15256e-07 3.32275 7.15256e-07V2.21516Z" fill="#60BAFA"/>
<path d="M5.53809 12.1834V1.10754" stroke="#60BAFA" stroke-width="2.21516"/>
</svg>
