<svg width="27" height="27" viewBox="0 0 27 27" fill="none" xmlns="http://www.w3.org/2000/svg">
<path d="M1.33337 13.173L13.1734 1.33301L25.0134 13.173M4.29337 10.953V23.533C4.29337 23.9255 4.4493 24.302 4.72686 24.5795C5.00441 24.8571 5.38085 25.013 5.77337 25.013H10.2134V20.573C10.2134 20.1805 10.3693 19.804 10.6469 19.5265C10.9244 19.2489 11.3009 19.093 11.6934 19.093H14.6534C15.0459 19.093 15.4223 19.2489 15.6999 19.5265C15.9774 19.804 16.1334 20.1805 16.1334 20.573V25.013H20.5734C20.9659 25.013 21.3423 24.8571 21.6199 24.5795C21.8974 24.302 22.0534 23.9255 22.0534 23.533V10.953" stroke="#1758AE" stroke-width="2.66667" stroke-linecap="round" stroke-linejoin="round"/>
</svg>
