<svg width="105" height="105" viewBox="0 0 105 105" fill="none" xmlns="http://www.w3.org/2000/svg">
<path d="M6.5625 19.6875H13.125V85.3125H6.5625V19.6875ZM19.6875 13.125H26.25V91.875H19.6875V13.125ZM45.9375 72.1875H85.3125V78.75H45.9375V72.1875ZM45.9375 52.5H85.3125V59.0625H45.9375V52.5Z" fill="white"/>
<path d="M97.4531 30.5156L74.4844 7.54687C73.8281 6.89062 73.1719 6.5625 72.1875 6.5625H39.375C35.7656 6.5625 32.8125 9.51562 32.8125 13.125V91.875C32.8125 95.4844 35.7656 98.4375 39.375 98.4375H91.875C95.4844 98.4375 98.4375 95.4844 98.4375 91.875V32.8125C98.4375 31.8281 98.1094 31.1719 97.4531 30.5156ZM72.1875 14.4375L90.5625 32.8125H72.1875V14.4375ZM91.875 91.875H39.375V13.125H65.625V32.8125C65.625 36.4219 68.5781 39.375 72.1875 39.375H91.875V91.875Z" fill="white"/>
</svg>
