<svg width="25" height="24" viewBox="0 0 25 24" fill="none" xmlns="http://www.w3.org/2000/svg">
<path d="M16 14.6667L14.6853 14.8853C14.6536 14.6944 14.6638 14.4989 14.7152 14.3123C14.7667 14.1257 14.8581 13.9525 14.9832 13.8049C15.1083 13.6572 15.2641 13.5385 15.4397 13.4571C15.6152 13.3756 15.8065 13.3334 16 13.3333V14.6667ZM1.33333 14.6667V16C0.979711 16 0.640573 15.8595 0.390524 15.6095C0.140476 15.3594 0 15.0203 0 14.6667H1.33333ZM4 -7.15256e-07H19.1467V2.66667H4V-7.15256e-07ZM20.7467 16H16V13.3333H20.7467V16ZM17.316 14.448L18.3893 20.8947L15.76 21.3333L14.6853 14.8853L17.316 14.448ZM15.76 24H15.4747V21.3333H15.76V24ZM11.036 21.6253L7.684 16.5933L9.90267 15.1133L13.2573 20.1453L11.036 21.6253ZM6.57333 16H1.33333V13.3333H6.57333V16ZM0 14.6667V4H2.66667V14.6667H0ZM23.0693 3.216L24.6693 11.216L22.056 11.7387L20.456 3.73867L23.0693 3.216ZM7.684 16.5933C7.5622 16.4108 7.39589 16.2611 7.20238 16.1576C7.00886 16.0541 6.79279 16 6.57333 16V13.3333C7.23182 13.3334 7.88012 13.496 8.46067 13.8067C9.04123 14.1175 9.53609 14.5668 9.90133 15.1147L7.684 16.5933ZM18.3893 20.8947C18.453 21.2766 18.4328 21.6679 18.33 22.0412C18.2272 22.4145 18.0443 22.761 17.7941 23.0565C17.5439 23.352 17.2323 23.5895 16.881 23.7524C16.5298 23.9154 16.1472 23.9999 15.76 24V21.3333L18.3893 20.8947ZM20.7467 13.3333C20.944 13.3334 21.1388 13.2897 21.3172 13.2054C21.4956 13.121 21.653 12.9981 21.7781 12.8456C21.9032 12.693 21.9929 12.5146 22.0408 12.3232C22.0886 12.1318 22.0947 11.9321 22.056 11.7387L24.6693 11.216C24.7853 11.7962 24.7711 12.3949 24.6278 12.969C24.4845 13.543 24.2156 14.0781 23.8405 14.5357C23.4654 14.9933 22.9935 15.362 22.4587 15.6152C21.9239 15.8684 21.3397 15.9998 20.748 16L20.7467 13.3333ZM19.1467 -7.15256e-07C20.0715 -5.87673e-05 20.9678 0.320352 21.683 0.906702C22.3982 1.49305 22.8881 2.30911 23.0693 3.216L20.456 3.73867C20.3955 3.43607 20.2319 3.16382 19.9932 2.96833C19.7544 2.77285 19.4552 2.66624 19.1467 2.66667V-7.15256e-07ZM15.4747 24C14.5967 24 13.7324 23.7832 12.9583 23.369C12.1842 22.9547 11.523 22.3558 11.036 21.6253L13.2573 20.1453C13.5008 20.5107 13.8293 20.8103 14.2164 21.0175C14.6034 21.2248 15.0356 21.3333 15.4747 21.3333V24ZM4 2.66667C3.64638 2.66667 3.30724 2.80714 3.05719 3.05719C2.80714 3.30724 2.66667 3.64638 2.66667 4H0C0 2.93913 0.421427 1.92172 1.17157 1.17157C1.92172 0.421426 2.93913 -7.15256e-07 4 -7.15256e-07V2.66667Z" fill="#1758AE"/>
<path d="M6.66699 14.6665V1.33317" stroke="#1758AE" stroke-width="2.66667"/>
</svg>
