<svg width="96" height="96" viewBox="0 0 96 96" fill="none" xmlns="http://www.w3.org/2000/svg">
<circle cx="48" cy="48" r="48" fill="#E30014"/>
<path d="M46.505 73C43.2422 73 39.7283 69.9167 32.5821 62.5417C32.2126 62.1597 31.8361 61.7778 31.4527 61.3819C27.3741 57.2083 22.7448 52.4722 21.5317 46.7708C19.9909 39.5069 22.0894 35 24.1252 32.5C26.9698 29.0069 31.5991 27 36.828 27C41.4574 27 44.6087 29.5139 46.498 32.1389C48.3944 29.5139 51.5387 27 56.1611 27C61.397 27 66.0333 29.0069 68.8778 32.5069C70.9136 35.0069 73.0121 39.5069 71.4644 46.7778C70.2582 52.4792 65.6289 57.2222 61.5434 61.3958C61.1669 61.7847 60.7904 62.1667 60.4279 62.5417C53.2817 69.9167 49.7679 73 46.505 73ZM36.842 31.1667C32.868 31.1667 29.4239 32.6111 27.3741 35.125C25.2477 37.7361 24.6621 41.3611 25.6242 45.9097C26.5863 50.4306 30.7625 54.7083 34.4506 58.4792C34.841 58.875 35.2175 59.2639 35.594 59.6528C38.9196 63.0903 44.4901 68.8403 46.505 68.8403C48.5199 68.8403 54.0904 63.0903 57.416 59.6528C57.7855 59.2708 58.162 58.8819 58.5455 58.4931C62.2336 54.7222 66.4167 50.4444 67.3719 45.9167C68.341 41.375 67.7484 37.7431 65.6289 35.1319C63.5792 32.6111 60.1351 31.1667 56.175 31.1667C50.4302 31.1667 48.5826 37.0486 48.5059 37.2986C48.241 38.1806 47.4253 38.7847 46.505 38.7847H46.498C45.5708 38.7847 44.7551 38.1736 44.4971 37.2847C44.4274 37.0417 42.5798 31.1597 36.842 31.1597V31.1667Z" fill="white"/>
</svg>
