<svg width="754" height="750" viewBox="0 0 754 750" fill="none" xmlns="http://www.w3.org/2000/svg">
<path d="M44.1641 438.125V442.789H26.0469V438.125H44.1641ZM27.5 423.875V458H21.6172V423.875H27.5ZM48.6875 423.875V458H42.8281V423.875H48.6875ZM69.4297 452.914V440.82C69.4297 439.914 69.2656 439.133 68.9375 438.477C68.6094 437.82 68.1094 437.312 67.4375 436.953C66.7812 436.594 65.9531 436.414 64.9531 436.414C64.0312 436.414 63.2344 436.57 62.5625 436.883C61.8906 437.195 61.3672 437.617 60.9922 438.148C60.6172 438.68 60.4297 439.281 60.4297 439.953H54.8047C54.8047 438.953 55.0469 437.984 55.5312 437.047C56.0156 436.109 56.7188 435.273 57.6406 434.539C58.5625 433.805 59.6641 433.227 60.9453 432.805C62.2266 432.383 63.6641 432.172 65.2578 432.172C67.1641 432.172 68.8516 432.492 70.3203 433.133C71.8047 433.773 72.9688 434.742 73.8125 436.039C74.6719 437.32 75.1016 438.93 75.1016 440.867V452.141C75.1016 453.297 75.1797 454.336 75.3359 455.258C75.5078 456.164 75.75 456.953 76.0625 457.625V458H70.2734C70.0078 457.391 69.7969 456.617 69.6406 455.68C69.5 454.727 69.4297 453.805 69.4297 452.914ZM70.25 442.578L70.2969 446.07H66.2422C65.1953 446.07 64.2734 446.172 63.4766 446.375C62.6797 446.562 62.0156 446.844 61.4844 447.219C60.9531 447.594 60.5547 448.047 60.2891 448.578C60.0234 449.109 59.8906 449.711 59.8906 450.383C59.8906 451.055 60.0469 451.672 60.3594 452.234C60.6719 452.781 61.125 453.211 61.7188 453.523C62.3281 453.836 63.0625 453.992 63.9219 453.992C65.0781 453.992 66.0859 453.758 66.9453 453.289C67.8203 452.805 68.5078 452.219 69.0078 451.531C69.5078 450.828 69.7734 450.164 69.8047 449.539L71.6328 452.047C71.4453 452.688 71.125 453.375 70.6719 454.109C70.2188 454.844 69.625 455.547 68.8906 456.219C68.1719 456.875 67.3047 457.414 66.2891 457.836C65.2891 458.258 64.1328 458.469 62.8203 458.469C61.1641 458.469 59.6875 458.141 58.3906 457.484C57.0938 456.812 56.0781 455.914 55.3438 454.789C54.6094 453.648 54.2422 452.359 54.2422 450.922C54.2422 449.578 54.4922 448.391 54.9922 447.359C55.5078 446.312 56.2578 445.438 57.2422 444.734C58.2422 444.031 59.4609 443.5 60.8984 443.141C62.3359 442.766 63.9766 442.578 65.8203 442.578H70.25ZM103.32 453.969C104.242 453.969 105.07 453.789 105.805 453.43C106.555 453.055 107.156 452.539 107.609 451.883C108.078 451.227 108.336 450.469 108.383 449.609H113.703C113.672 451.25 113.188 452.742 112.25 454.086C111.312 455.43 110.07 456.5 108.523 457.297C106.977 458.078 105.266 458.469 103.391 458.469C101.453 458.469 99.7656 458.141 98.3281 457.484C96.8906 456.812 95.6953 455.891 94.7422 454.719C93.7891 453.547 93.0703 452.195 92.5859 450.664C92.1172 449.133 91.8828 447.492 91.8828 445.742V444.922C91.8828 443.172 92.1172 441.531 92.5859 440C93.0703 438.453 93.7891 437.094 94.7422 435.922C95.6953 434.75 96.8906 433.836 98.3281 433.18C99.7656 432.508 101.445 432.172 103.367 432.172C105.398 432.172 107.18 432.578 108.711 433.391C110.242 434.188 111.445 435.305 112.32 436.742C113.211 438.164 113.672 439.82 113.703 441.711H108.383C108.336 440.773 108.102 439.93 107.68 439.18C107.273 438.414 106.695 437.805 105.945 437.352C105.211 436.898 104.328 436.672 103.297 436.672C102.156 436.672 101.211 436.906 100.461 437.375C99.7109 437.828 99.125 438.453 98.7031 439.25C98.2812 440.031 97.9766 440.914 97.7891 441.898C97.6172 442.867 97.5312 443.875 97.5312 444.922V445.742C97.5312 446.789 97.6172 447.805 97.7891 448.789C97.9609 449.773 98.2578 450.656 98.6797 451.438C99.1172 452.203 99.7109 452.82 100.461 453.289C101.211 453.742 102.164 453.969 103.32 453.969ZM124.133 432.641V458H118.484V432.641H124.133ZM140.68 432.641L129.266 447.898H122.82L122.07 442.789H126.781L133.625 432.641H140.68ZM134.07 458L126.43 446.938L130.883 443.727L141.5 458H134.07ZM142.648 445.602V445.062C142.648 443.234 142.914 441.539 143.445 439.977C143.977 438.398 144.742 437.031 145.742 435.875C146.758 434.703 147.992 433.797 149.445 433.156C150.914 432.5 152.57 432.172 154.414 432.172C156.273 432.172 157.93 432.5 159.383 433.156C160.852 433.797 162.094 434.703 163.109 435.875C164.125 437.031 164.898 438.398 165.43 439.977C165.961 441.539 166.227 443.234 166.227 445.062V445.602C166.227 447.43 165.961 449.125 165.43 450.688C164.898 452.25 164.125 453.617 163.109 454.789C162.094 455.945 160.859 456.852 159.406 457.508C157.953 458.148 156.305 458.469 154.461 458.469C152.602 458.469 150.938 458.148 149.469 457.508C148.016 456.852 146.781 455.945 145.766 454.789C144.75 453.617 143.977 452.25 143.445 450.688C142.914 449.125 142.648 447.43 142.648 445.602ZM148.297 445.062V445.602C148.297 446.742 148.414 447.82 148.648 448.836C148.883 449.852 149.25 450.742 149.75 451.508C150.25 452.273 150.891 452.875 151.672 453.312C152.453 453.75 153.383 453.969 154.461 453.969C155.508 453.969 156.414 453.75 157.18 453.312C157.961 452.875 158.602 452.273 159.102 451.508C159.602 450.742 159.969 449.852 160.203 448.836C160.453 447.82 160.578 446.742 160.578 445.602V445.062C160.578 443.938 160.453 442.875 160.203 441.875C159.969 440.859 159.594 439.961 159.078 439.18C158.578 438.398 157.938 437.789 157.156 437.352C156.391 436.898 155.477 436.672 154.414 436.672C153.352 436.672 152.43 436.898 151.648 437.352C150.883 437.789 150.25 438.398 149.75 439.18C149.25 439.961 148.883 440.859 148.648 441.875C148.414 442.875 148.297 443.938 148.297 445.062ZM187.625 432.641V437.141H175.25V432.641H187.625ZM192.055 432.641V458H186.406V432.641H192.055ZM173.867 432.641H179.445L178.766 445.18C178.672 447.039 178.484 448.68 178.203 450.102C177.938 451.508 177.578 452.719 177.125 453.734C176.672 454.734 176.117 455.547 175.461 456.172C174.805 456.797 174.039 457.258 173.164 457.555C172.289 457.852 171.305 458 170.211 458H168.453L168.43 453.359L169.32 453.289C169.898 453.242 170.398 453.094 170.82 452.844C171.242 452.578 171.602 452.203 171.898 451.719C172.211 451.234 172.461 450.609 172.648 449.844C172.852 449.078 173.008 448.172 173.117 447.125C173.242 446.078 173.336 444.859 173.398 443.469L173.867 432.641ZM202.25 440.703H209.727C211.914 440.703 213.773 441.07 215.305 441.805C216.836 442.539 218 443.562 218.797 444.875C219.609 446.172 220.016 447.656 220.016 449.328C220.016 450.562 219.789 451.711 219.336 452.773C218.883 453.82 218.211 454.734 217.32 455.516C216.445 456.297 215.367 456.906 214.086 457.344C212.82 457.781 211.367 458 209.727 458H198.5V432.641H204.172V453.523H209.727C210.852 453.523 211.75 453.328 212.422 452.938C213.094 452.547 213.578 452.039 213.875 451.414C214.188 450.789 214.344 450.125 214.344 449.422C214.344 448.703 214.188 448.023 213.875 447.383C213.578 446.742 213.094 446.219 212.422 445.812C211.75 445.406 210.852 445.203 209.727 445.203H202.25V440.703ZM230.633 432.641V458H224.984V432.641H230.633ZM247.18 432.641L235.766 447.898H229.32L228.57 442.789H233.281L240.125 432.641H247.18ZM240.57 458L232.93 446.938L237.383 443.727L248 458H240.57ZM249.148 445.602V445.062C249.148 443.234 249.414 441.539 249.945 439.977C250.477 438.398 251.242 437.031 252.242 435.875C253.258 434.703 254.492 433.797 255.945 433.156C257.414 432.5 259.07 432.172 260.914 432.172C262.773 432.172 264.43 432.5 265.883 433.156C267.352 433.797 268.594 434.703 269.609 435.875C270.625 437.031 271.398 438.398 271.93 439.977C272.461 441.539 272.727 443.234 272.727 445.062V445.602C272.727 447.43 272.461 449.125 271.93 450.688C271.398 452.25 270.625 453.617 269.609 454.789C268.594 455.945 267.359 456.852 265.906 457.508C264.453 458.148 262.805 458.469 260.961 458.469C259.102 458.469 257.438 458.148 255.969 457.508C254.516 456.852 253.281 455.945 252.266 454.789C251.25 453.617 250.477 452.25 249.945 450.688C249.414 449.125 249.148 447.43 249.148 445.602ZM254.797 445.062V445.602C254.797 446.742 254.914 447.82 255.148 448.836C255.383 449.852 255.75 450.742 256.25 451.508C256.75 452.273 257.391 452.875 258.172 453.312C258.953 453.75 259.883 453.969 260.961 453.969C262.008 453.969 262.914 453.75 263.68 453.312C264.461 452.875 265.102 452.273 265.602 451.508C266.102 450.742 266.469 449.852 266.703 448.836C266.953 447.82 267.078 446.742 267.078 445.602V445.062C267.078 443.938 266.953 442.875 266.703 441.875C266.469 440.859 266.094 439.961 265.578 439.18C265.078 438.398 264.438 437.789 263.656 437.352C262.891 436.898 261.977 436.672 260.914 436.672C259.852 436.672 258.93 436.898 258.148 437.352C257.383 437.789 256.75 438.398 256.25 439.18C255.75 439.961 255.383 440.859 255.148 441.875C254.914 442.875 254.797 443.938 254.797 445.062ZM302.773 442.578H294.078L294.031 438.289H301.625C302.906 438.289 303.992 438.102 304.883 437.727C305.789 437.336 306.477 436.781 306.945 436.062C307.414 435.328 307.648 434.445 307.648 433.414C307.648 432.273 307.43 431.344 306.992 430.625C306.555 429.906 305.883 429.383 304.977 429.055C304.086 428.727 302.945 428.562 301.555 428.562H295.859V458H289.977V423.875H301.555C303.43 423.875 305.102 424.055 306.57 424.414C308.055 424.773 309.312 425.336 310.344 426.102C311.391 426.852 312.18 427.805 312.711 428.961C313.258 430.117 313.531 431.492 313.531 433.086C313.531 434.492 313.195 435.781 312.523 436.953C311.852 438.109 310.859 439.055 309.547 439.789C308.234 440.523 306.602 440.961 304.648 441.102L302.773 442.578ZM302.516 458H292.227L294.875 453.336H302.516C303.844 453.336 304.953 453.117 305.844 452.68C306.734 452.227 307.398 451.609 307.836 450.828C308.289 450.031 308.516 449.102 308.516 448.039C308.516 446.93 308.32 445.969 307.93 445.156C307.539 444.328 306.922 443.695 306.078 443.258C305.234 442.805 304.133 442.578 302.773 442.578H296.164L296.211 438.289H304.812L306.148 439.906C308.023 439.969 309.562 440.383 310.766 441.148C311.984 441.914 312.891 442.906 313.484 444.125C314.078 445.344 314.375 446.656 314.375 448.062C314.375 450.234 313.898 452.055 312.945 453.523C312.008 454.992 310.656 456.109 308.891 456.875C307.125 457.625 305 458 302.516 458ZM323.938 440.703H331.414C333.602 440.703 335.461 441.07 336.992 441.805C338.523 442.539 339.688 443.562 340.484 444.875C341.297 446.172 341.703 447.656 341.703 449.328C341.703 450.562 341.477 451.711 341.023 452.773C340.57 453.82 339.898 454.734 339.008 455.516C338.133 456.297 337.055 456.906 335.773 457.344C334.508 457.781 333.055 458 331.414 458H320.188V432.641H325.859V453.523H331.414C332.539 453.523 333.438 453.328 334.109 452.938C334.781 452.547 335.266 452.039 335.562 451.414C335.875 450.789 336.031 450.125 336.031 449.422C336.031 448.703 335.875 448.023 335.562 447.383C335.266 446.742 334.781 446.219 334.109 445.812C333.438 445.406 332.539 445.203 331.414 445.203H323.938V440.703ZM351.688 432.641V458H346.039V432.641H351.688ZM377.68 455.234L384.57 432.641H390.617L380.445 461.867C380.211 462.492 379.906 463.172 379.531 463.906C379.156 464.641 378.664 465.336 378.055 465.992C377.461 466.664 376.719 467.203 375.828 467.609C374.938 468.031 373.859 468.242 372.594 468.242C372.094 468.242 371.609 468.195 371.141 468.102C370.688 468.023 370.258 467.938 369.852 467.844L369.828 463.531C369.984 463.547 370.172 463.562 370.391 463.578C370.625 463.594 370.812 463.602 370.953 463.602C371.891 463.602 372.672 463.484 373.297 463.25C373.922 463.031 374.43 462.672 374.82 462.172C375.227 461.672 375.57 461 375.852 460.156L377.68 455.234ZM373.789 432.641L379.812 451.625L380.82 457.578L376.906 458.586L367.695 432.641H373.789ZM397.133 432.641H402.781L402.5 441.57C402.422 444.164 402.125 446.391 401.609 448.25C401.094 450.109 400.422 451.68 399.594 452.961C398.766 454.227 397.828 455.266 396.781 456.078C395.75 456.891 394.664 457.531 393.523 458H391.859V453.547L392.656 453.5C393.328 452.781 393.906 452.062 394.391 451.344C394.891 450.609 395.312 449.805 395.656 448.93C396 448.039 396.266 447 396.453 445.812C396.656 444.625 396.789 443.211 396.852 441.57L397.133 432.641ZM398.633 432.641H414.711V458H409.086V437.422H398.633V432.641ZM390.57 453.5H418.18V465.547H412.531V458H396.289V465.547H390.547L390.57 453.5ZM421.133 445.602V445.062C421.133 443.234 421.398 441.539 421.93 439.977C422.461 438.398 423.227 437.031 424.227 435.875C425.242 434.703 426.477 433.797 427.93 433.156C429.398 432.5 431.055 432.172 432.898 432.172C434.758 432.172 436.414 432.5 437.867 433.156C439.336 433.797 440.578 434.703 441.594 435.875C442.609 437.031 443.383 438.398 443.914 439.977C444.445 441.539 444.711 443.234 444.711 445.062V445.602C444.711 447.43 444.445 449.125 443.914 450.688C443.383 452.25 442.609 453.617 441.594 454.789C440.578 455.945 439.344 456.852 437.891 457.508C436.438 458.148 434.789 458.469 432.945 458.469C431.086 458.469 429.422 458.148 427.953 457.508C426.5 456.852 425.266 455.945 424.25 454.789C423.234 453.617 422.461 452.25 421.93 450.688C421.398 449.125 421.133 447.43 421.133 445.602ZM426.781 445.062V445.602C426.781 446.742 426.898 447.82 427.133 448.836C427.367 449.852 427.734 450.742 428.234 451.508C428.734 452.273 429.375 452.875 430.156 453.312C430.938 453.75 431.867 453.969 432.945 453.969C433.992 453.969 434.898 453.75 435.664 453.312C436.445 452.875 437.086 452.273 437.586 451.508C438.086 450.742 438.453 449.852 438.688 448.836C438.938 447.82 439.062 446.742 439.062 445.602V445.062C439.062 443.938 438.938 442.875 438.688 441.875C438.453 440.859 438.078 439.961 437.562 439.18C437.062 438.398 436.422 437.789 435.641 437.352C434.875 436.898 433.961 436.672 432.898 436.672C431.836 436.672 430.914 436.898 430.133 437.352C429.367 437.789 428.734 438.398 428.234 439.18C427.734 439.961 427.367 440.859 427.133 441.875C426.898 442.875 426.781 443.938 426.781 445.062ZM461.773 447.148H453.664L453.617 443.164H460.273C461.367 443.164 462.266 443.055 462.969 442.836C463.688 442.617 464.219 442.289 464.562 441.852C464.906 441.398 465.078 440.852 465.078 440.211C465.078 439.68 464.977 439.219 464.773 438.828C464.57 438.422 464.258 438.094 463.836 437.844C463.43 437.578 462.914 437.391 462.289 437.281C461.68 437.156 460.969 437.094 460.156 437.094H455.539V458H449.891V432.641H460.156C461.781 432.641 463.242 432.781 464.539 433.062C465.852 433.344 466.969 433.773 467.891 434.352C468.812 434.93 469.516 435.664 470 436.555C470.5 437.43 470.75 438.461 470.75 439.648C470.75 440.43 470.578 441.164 470.234 441.852C469.906 442.539 469.414 443.148 468.758 443.68C468.102 444.211 467.297 444.648 466.344 444.992C465.391 445.32 464.297 445.523 463.062 445.602L461.773 447.148ZM461.773 458H452.023L454.273 453.547H461.773C462.773 453.547 463.602 453.422 464.258 453.172C464.914 452.922 465.398 452.562 465.711 452.094C466.039 451.609 466.203 451.039 466.203 450.383C466.203 449.711 466.047 449.133 465.734 448.648C465.422 448.164 464.938 447.797 464.281 447.547C463.641 447.281 462.805 447.148 461.773 447.148H455.328L455.375 443.164H463.039L464.656 444.711C466.266 444.82 467.602 445.164 468.664 445.742C469.727 446.32 470.523 447.047 471.055 447.922C471.586 448.797 471.852 449.75 471.852 450.781C471.852 451.969 471.625 453.016 471.172 453.922C470.734 454.828 470.078 455.586 469.203 456.195C468.344 456.789 467.289 457.242 466.039 457.555C464.789 457.852 463.367 458 461.773 458ZM493.766 432.641V437.141H481.391V432.641H493.766ZM498.195 432.641V458H492.547V432.641H498.195ZM480.008 432.641H485.586L484.906 445.18C484.812 447.039 484.625 448.68 484.344 450.102C484.078 451.508 483.719 452.719 483.266 453.734C482.812 454.734 482.258 455.547 481.602 456.172C480.945 456.797 480.18 457.258 479.305 457.555C478.43 457.852 477.445 458 476.352 458H474.594L474.57 453.359L475.461 453.289C476.039 453.242 476.539 453.094 476.961 452.844C477.383 452.578 477.742 452.203 478.039 451.719C478.352 451.234 478.602 450.609 478.789 449.844C478.992 449.078 479.148 448.172 479.258 447.125C479.383 446.078 479.477 444.859 479.539 443.469L480.008 432.641ZM515.375 458.469C513.5 458.469 511.805 458.164 510.289 457.555C508.789 456.93 507.508 456.062 506.445 454.953C505.398 453.844 504.594 452.539 504.031 451.039C503.469 449.539 503.188 447.922 503.188 446.188V445.25C503.188 443.266 503.477 441.469 504.055 439.859C504.633 438.25 505.438 436.875 506.469 435.734C507.5 434.578 508.719 433.695 510.125 433.086C511.531 432.477 513.055 432.172 514.695 432.172C516.508 432.172 518.094 432.477 519.453 433.086C520.812 433.695 521.938 434.555 522.828 435.664C523.734 436.758 524.406 438.062 524.844 439.578C525.297 441.094 525.523 442.766 525.523 444.594V447.008H505.93V442.953H519.945V442.508C519.914 441.492 519.711 440.539 519.336 439.648C518.977 438.758 518.422 438.039 517.672 437.492C516.922 436.945 515.922 436.672 514.672 436.672C513.734 436.672 512.898 436.875 512.164 437.281C511.445 437.672 510.844 438.242 510.359 438.992C509.875 439.742 509.5 440.648 509.234 441.711C508.984 442.758 508.859 443.938 508.859 445.25V446.188C508.859 447.297 509.008 448.328 509.305 449.281C509.617 450.219 510.07 451.039 510.664 451.742C511.258 452.445 511.977 453 512.82 453.406C513.664 453.797 514.625 453.992 515.703 453.992C517.062 453.992 518.273 453.719 519.336 453.172C520.398 452.625 521.32 451.852 522.102 450.852L525.078 453.734C524.531 454.531 523.82 455.297 522.945 456.031C522.07 456.75 521 457.336 519.734 457.789C518.484 458.242 517.031 458.469 515.375 458.469ZM541.414 432.641V458H535.742V432.641H541.414ZM549.734 432.641V437.094H527.562V432.641H549.734ZM565.836 447.148H557.727L557.68 443.164H564.336C565.43 443.164 566.328 443.055 567.031 442.836C567.75 442.617 568.281 442.289 568.625 441.852C568.969 441.398 569.141 440.852 569.141 440.211C569.141 439.68 569.039 439.219 568.836 438.828C568.633 438.422 568.32 438.094 567.898 437.844C567.492 437.578 566.977 437.391 566.352 437.281C565.742 437.156 565.031 437.094 564.219 437.094H559.602V458H553.953V432.641H564.219C565.844 432.641 567.305 432.781 568.602 433.062C569.914 433.344 571.031 433.773 571.953 434.352C572.875 434.93 573.578 435.664 574.062 436.555C574.562 437.43 574.812 438.461 574.812 439.648C574.812 440.43 574.641 441.164 574.297 441.852C573.969 442.539 573.477 443.148 572.82 443.68C572.164 444.211 571.359 444.648 570.406 444.992C569.453 445.32 568.359 445.523 567.125 445.602L565.836 447.148ZM565.836 458H556.086L558.336 453.547H565.836C566.836 453.547 567.664 453.422 568.32 453.172C568.977 452.922 569.461 452.562 569.773 452.094C570.102 451.609 570.266 451.039 570.266 450.383C570.266 449.711 570.109 449.133 569.797 448.648C569.484 448.164 569 447.797 568.344 447.547C567.703 447.281 566.867 447.148 565.836 447.148H559.391L559.438 443.164H567.102L568.719 444.711C570.328 444.82 571.664 445.164 572.727 445.742C573.789 446.32 574.586 447.047 575.117 447.922C575.648 448.797 575.914 449.75 575.914 450.781C575.914 451.969 575.688 453.016 575.234 453.922C574.797 454.828 574.141 455.586 573.266 456.195C572.406 456.789 571.352 457.242 570.102 457.555C568.852 457.852 567.43 458 565.836 458ZM579.711 445.602V445.062C579.711 443.234 579.977 441.539 580.508 439.977C581.039 438.398 581.805 437.031 582.805 435.875C583.82 434.703 585.055 433.797 586.508 433.156C587.977 432.5 589.633 432.172 591.477 432.172C593.336 432.172 594.992 432.5 596.445 433.156C597.914 433.797 599.156 434.703 600.172 435.875C601.188 437.031 601.961 438.398 602.492 439.977C603.023 441.539 603.289 443.234 603.289 445.062V445.602C603.289 447.43 603.023 449.125 602.492 450.688C601.961 452.25 601.188 453.617 600.172 454.789C599.156 455.945 597.922 456.852 596.469 457.508C595.016 458.148 593.367 458.469 591.523 458.469C589.664 458.469 588 458.148 586.531 457.508C585.078 456.852 583.844 455.945 582.828 454.789C581.812 453.617 581.039 452.25 580.508 450.688C579.977 449.125 579.711 447.43 579.711 445.602ZM585.359 445.062V445.602C585.359 446.742 585.477 447.82 585.711 448.836C585.945 449.852 586.312 450.742 586.812 451.508C587.312 452.273 587.953 452.875 588.734 453.312C589.516 453.75 590.445 453.969 591.523 453.969C592.57 453.969 593.477 453.75 594.242 453.312C595.023 452.875 595.664 452.273 596.164 451.508C596.664 450.742 597.031 449.852 597.266 448.836C597.516 447.82 597.641 446.742 597.641 445.602V445.062C597.641 443.938 597.516 442.875 597.266 441.875C597.031 440.859 596.656 439.961 596.141 439.18C595.641 438.398 595 437.789 594.219 437.352C593.453 436.898 592.539 436.672 591.477 436.672C590.414 436.672 589.492 436.898 588.711 437.352C587.945 437.789 587.312 438.398 586.812 439.18C586.312 439.961 585.945 440.859 585.711 441.875C585.477 442.875 585.359 443.938 585.359 445.062ZM613.695 437.516V467.75H608.047V432.641H613.25L613.695 437.516ZM630.219 445.086V445.578C630.219 447.422 630 449.133 629.562 450.711C629.141 452.273 628.508 453.641 627.664 454.812C626.836 455.969 625.812 456.867 624.594 457.508C623.375 458.148 621.969 458.469 620.375 458.469C618.797 458.469 617.414 458.18 616.227 457.602C615.055 457.008 614.062 456.172 613.25 455.094C612.438 454.016 611.781 452.75 611.281 451.297C610.797 449.828 610.453 448.219 610.25 446.469V444.57C610.453 442.711 610.797 441.023 611.281 439.508C611.781 437.992 612.438 436.688 613.25 435.594C614.062 434.5 615.055 433.656 616.227 433.062C617.398 432.469 618.766 432.172 620.328 432.172C621.922 432.172 623.336 432.484 624.57 433.109C625.805 433.719 626.844 434.594 627.688 435.734C628.531 436.859 629.164 438.219 629.586 439.812C630.008 441.391 630.219 443.148 630.219 445.086ZM624.57 445.578V445.086C624.57 443.914 624.461 442.828 624.242 441.828C624.023 440.812 623.68 439.922 623.211 439.156C622.742 438.391 622.141 437.797 621.406 437.375C620.688 436.938 619.82 436.719 618.805 436.719C617.805 436.719 616.945 436.891 616.227 437.234C615.508 437.562 614.906 438.023 614.422 438.617C613.938 439.211 613.562 439.906 613.297 440.703C613.031 441.484 612.844 442.336 612.734 443.258V447.805C612.922 448.93 613.242 449.961 613.695 450.898C614.148 451.836 614.789 452.586 615.617 453.148C616.461 453.695 617.539 453.969 618.852 453.969C619.867 453.969 620.734 453.75 621.453 453.312C622.172 452.875 622.758 452.273 623.211 451.508C623.68 450.727 624.023 449.828 624.242 448.812C624.461 447.797 624.57 446.719 624.57 445.578ZM646.203 458.469C644.328 458.469 642.633 458.164 641.117 457.555C639.617 456.93 638.336 456.062 637.273 454.953C636.227 453.844 635.422 452.539 634.859 451.039C634.297 449.539 634.016 447.922 634.016 446.188V445.25C634.016 443.266 634.305 441.469 634.883 439.859C635.461 438.25 636.266 436.875 637.297 435.734C638.328 434.578 639.547 433.695 640.953 433.086C642.359 432.477 643.883 432.172 645.523 432.172C647.336 432.172 648.922 432.477 650.281 433.086C651.641 433.695 652.766 434.555 653.656 435.664C654.562 436.758 655.234 438.062 655.672 439.578C656.125 441.094 656.352 442.766 656.352 444.594V447.008H636.758V442.953H650.773V442.508C650.742 441.492 650.539 440.539 650.164 439.648C649.805 438.758 649.25 438.039 648.5 437.492C647.75 436.945 646.75 436.672 645.5 436.672C644.562 436.672 643.727 436.875 642.992 437.281C642.273 437.672 641.672 438.242 641.188 438.992C640.703 439.742 640.328 440.648 640.062 441.711C639.812 442.758 639.688 443.938 639.688 445.25V446.188C639.688 447.297 639.836 448.328 640.133 449.281C640.445 450.219 640.898 451.039 641.492 451.742C642.086 452.445 642.805 453 643.648 453.406C644.492 453.797 645.453 453.992 646.531 453.992C647.891 453.992 649.102 453.719 650.164 453.172C651.227 452.625 652.148 451.852 652.93 450.852L655.906 453.734C655.359 454.531 654.648 455.297 653.773 456.031C652.898 456.75 651.828 457.336 650.562 457.789C649.312 458.242 647.859 458.469 646.203 458.469ZM678.078 443.234V447.688H664.953V443.234H678.078ZM666.594 432.641V458H660.945V432.641H666.594ZM682.156 432.641V458H676.508V432.641H682.156ZM692.375 440.703H699.852C702.039 440.703 703.898 441.07 705.43 441.805C706.961 442.539 708.125 443.562 708.922 444.875C709.734 446.172 710.141 447.656 710.141 449.328C710.141 450.562 709.914 451.711 709.461 452.773C709.008 453.82 708.336 454.734 707.445 455.516C706.57 456.297 705.492 456.906 704.211 457.344C702.945 457.781 701.492 458 699.852 458H688.625V432.641H694.297V453.523H699.852C700.977 453.523 701.875 453.328 702.547 452.938C703.219 452.547 703.703 452.039 704 451.414C704.312 450.789 704.469 450.125 704.469 449.422C704.469 448.703 704.312 448.023 704 447.383C703.703 446.742 703.219 446.219 702.547 445.812C701.875 445.406 700.977 445.203 699.852 445.203H692.375V440.703ZM720.125 432.641V458H714.477V432.641H720.125ZM186.078 489.641V494.141H173.562V489.641H186.078ZM174.898 489.641V515H169.25V489.641H174.898ZM190.508 489.641V515H184.836V489.641H190.508ZM202.156 494.516V524.75H196.508V489.641H201.711L202.156 494.516ZM218.68 502.086V502.578C218.68 504.422 218.461 506.133 218.023 507.711C217.602 509.273 216.969 510.641 216.125 511.812C215.297 512.969 214.273 513.867 213.055 514.508C211.836 515.148 210.43 515.469 208.836 515.469C207.258 515.469 205.875 515.18 204.688 514.602C203.516 514.008 202.523 513.172 201.711 512.094C200.898 511.016 200.242 509.75 199.742 508.297C199.258 506.828 198.914 505.219 198.711 503.469V501.57C198.914 499.711 199.258 498.023 199.742 496.508C200.242 494.992 200.898 493.688 201.711 492.594C202.523 491.5 203.516 490.656 204.688 490.062C205.859 489.469 207.227 489.172 208.789 489.172C210.383 489.172 211.797 489.484 213.031 490.109C214.266 490.719 215.305 491.594 216.148 492.734C216.992 493.859 217.625 495.219 218.047 496.812C218.469 498.391 218.68 500.148 218.68 502.086ZM213.031 502.578V502.086C213.031 500.914 212.922 499.828 212.703 498.828C212.484 497.812 212.141 496.922 211.672 496.156C211.203 495.391 210.602 494.797 209.867 494.375C209.148 493.938 208.281 493.719 207.266 493.719C206.266 493.719 205.406 493.891 204.688 494.234C203.969 494.562 203.367 495.023 202.883 495.617C202.398 496.211 202.023 496.906 201.758 497.703C201.492 498.484 201.305 499.336 201.195 500.258V504.805C201.383 505.93 201.703 506.961 202.156 507.898C202.609 508.836 203.25 509.586 204.078 510.148C204.922 510.695 206 510.969 207.312 510.969C208.328 510.969 209.195 510.75 209.914 510.312C210.633 509.875 211.219 509.273 211.672 508.508C212.141 507.727 212.484 506.828 212.703 505.812C212.922 504.797 213.031 503.719 213.031 502.578ZM234.664 515.469C232.789 515.469 231.094 515.164 229.578 514.555C228.078 513.93 226.797 513.062 225.734 511.953C224.688 510.844 223.883 509.539 223.32 508.039C222.758 506.539 222.477 504.922 222.477 503.188V502.25C222.477 500.266 222.766 498.469 223.344 496.859C223.922 495.25 224.727 493.875 225.758 492.734C226.789 491.578 228.008 490.695 229.414 490.086C230.82 489.477 232.344 489.172 233.984 489.172C235.797 489.172 237.383 489.477 238.742 490.086C240.102 490.695 241.227 491.555 242.117 492.664C243.023 493.758 243.695 495.062 244.133 496.578C244.586 498.094 244.812 499.766 244.812 501.594V504.008H225.219V499.953H239.234V499.508C239.203 498.492 239 497.539 238.625 496.648C238.266 495.758 237.711 495.039 236.961 494.492C236.211 493.945 235.211 493.672 233.961 493.672C233.023 493.672 232.188 493.875 231.453 494.281C230.734 494.672 230.133 495.242 229.648 495.992C229.164 496.742 228.789 497.648 228.523 498.711C228.273 499.758 228.148 500.938 228.148 502.25V503.188C228.148 504.297 228.297 505.328 228.594 506.281C228.906 507.219 229.359 508.039 229.953 508.742C230.547 509.445 231.266 510 232.109 510.406C232.953 510.797 233.914 510.992 234.992 510.992C236.352 510.992 237.562 510.719 238.625 510.172C239.688 509.625 240.609 508.852 241.391 507.852L244.367 510.734C243.82 511.531 243.109 512.297 242.234 513.031C241.359 513.75 240.289 514.336 239.023 514.789C237.773 515.242 236.32 515.469 234.664 515.469ZM253.812 489.641H259.461L259.18 498.57C259.102 501.164 258.805 503.391 258.289 505.25C257.773 507.109 257.102 508.68 256.273 509.961C255.445 511.227 254.508 512.266 253.461 513.078C252.43 513.891 251.344 514.531 250.203 515H248.539V510.547L249.336 510.5C250.008 509.781 250.586 509.062 251.07 508.344C251.57 507.609 251.992 506.805 252.336 505.93C252.68 505.039 252.945 504 253.133 502.812C253.336 501.625 253.469 500.211 253.531 498.57L253.812 489.641ZM255.312 489.641H271.391V515H265.766V494.422H255.312V489.641ZM247.25 510.5H274.859V522.547H269.211V515H252.969V522.547H247.227L247.25 510.5ZM289.25 510.969C290.172 510.969 291 510.789 291.734 510.43C292.484 510.055 293.086 509.539 293.539 508.883C294.008 508.227 294.266 507.469 294.312 506.609H299.633C299.602 508.25 299.117 509.742 298.18 511.086C297.242 512.43 296 513.5 294.453 514.297C292.906 515.078 291.195 515.469 289.32 515.469C287.383 515.469 285.695 515.141 284.258 514.484C282.82 513.812 281.625 512.891 280.672 511.719C279.719 510.547 279 509.195 278.516 507.664C278.047 506.133 277.812 504.492 277.812 502.742V501.922C277.812 500.172 278.047 498.531 278.516 497C279 495.453 279.719 494.094 280.672 492.922C281.625 491.75 282.82 490.836 284.258 490.18C285.695 489.508 287.375 489.172 289.297 489.172C291.328 489.172 293.109 489.578 294.641 490.391C296.172 491.188 297.375 492.305 298.25 493.742C299.141 495.164 299.602 496.82 299.633 498.711H294.312C294.266 497.773 294.031 496.93 293.609 496.18C293.203 495.414 292.625 494.805 291.875 494.352C291.141 493.898 290.258 493.672 289.227 493.672C288.086 493.672 287.141 493.906 286.391 494.375C285.641 494.828 285.055 495.453 284.633 496.25C284.211 497.031 283.906 497.914 283.719 498.898C283.547 499.867 283.461 500.875 283.461 501.922V502.742C283.461 503.789 283.547 504.805 283.719 505.789C283.891 506.773 284.188 507.656 284.609 508.438C285.047 509.203 285.641 509.82 286.391 510.289C287.141 510.742 288.094 510.969 289.25 510.969ZM315.734 489.641V515H310.062V489.641H315.734ZM324.055 489.641V494.094H301.883V489.641H324.055ZM341.75 509.914V497.82C341.75 496.914 341.586 496.133 341.258 495.477C340.93 494.82 340.43 494.312 339.758 493.953C339.102 493.594 338.273 493.414 337.273 493.414C336.352 493.414 335.555 493.57 334.883 493.883C334.211 494.195 333.688 494.617 333.312 495.148C332.938 495.68 332.75 496.281 332.75 496.953H327.125C327.125 495.953 327.367 494.984 327.852 494.047C328.336 493.109 329.039 492.273 329.961 491.539C330.883 490.805 331.984 490.227 333.266 489.805C334.547 489.383 335.984 489.172 337.578 489.172C339.484 489.172 341.172 489.492 342.641 490.133C344.125 490.773 345.289 491.742 346.133 493.039C346.992 494.32 347.422 495.93 347.422 497.867V509.141C347.422 510.297 347.5 511.336 347.656 512.258C347.828 513.164 348.07 513.953 348.383 514.625V515H342.594C342.328 514.391 342.117 513.617 341.961 512.68C341.82 511.727 341.75 510.805 341.75 509.914ZM342.57 499.578L342.617 503.07H338.562C337.516 503.07 336.594 503.172 335.797 503.375C335 503.562 334.336 503.844 333.805 504.219C333.273 504.594 332.875 505.047 332.609 505.578C332.344 506.109 332.211 506.711 332.211 507.383C332.211 508.055 332.367 508.672 332.68 509.234C332.992 509.781 333.445 510.211 334.039 510.523C334.648 510.836 335.383 510.992 336.242 510.992C337.398 510.992 338.406 510.758 339.266 510.289C340.141 509.805 340.828 509.219 341.328 508.531C341.828 507.828 342.094 507.164 342.125 506.539L343.953 509.047C343.766 509.688 343.445 510.375 342.992 511.109C342.539 511.844 341.945 512.547 341.211 513.219C340.492 513.875 339.625 514.414 338.609 514.836C337.609 515.258 336.453 515.469 335.141 515.469C333.484 515.469 332.008 515.141 330.711 514.484C329.414 513.812 328.398 512.914 327.664 511.789C326.93 510.648 326.562 509.359 326.562 507.922C326.562 506.578 326.812 505.391 327.312 504.359C327.828 503.312 328.578 502.438 329.562 501.734C330.562 501.031 331.781 500.5 333.219 500.141C334.656 499.766 336.297 499.578 338.141 499.578H342.57ZM365.656 504.148H357.547L357.5 500.164H364.156C365.25 500.164 366.148 500.055 366.852 499.836C367.57 499.617 368.102 499.289 368.445 498.852C368.789 498.398 368.961 497.852 368.961 497.211C368.961 496.68 368.859 496.219 368.656 495.828C368.453 495.422 368.141 495.094 367.719 494.844C367.312 494.578 366.797 494.391 366.172 494.281C365.562 494.156 364.852 494.094 364.039 494.094H359.422V515H353.773V489.641H364.039C365.664 489.641 367.125 489.781 368.422 490.062C369.734 490.344 370.852 490.773 371.773 491.352C372.695 491.93 373.398 492.664 373.883 493.555C374.383 494.43 374.633 495.461 374.633 496.648C374.633 497.43 374.461 498.164 374.117 498.852C373.789 499.539 373.297 500.148 372.641 500.68C371.984 501.211 371.18 501.648 370.227 501.992C369.273 502.32 368.18 502.523 366.945 502.602L365.656 504.148ZM365.656 515H355.906L358.156 510.547H365.656C366.656 510.547 367.484 510.422 368.141 510.172C368.797 509.922 369.281 509.562 369.594 509.094C369.922 508.609 370.086 508.039 370.086 507.383C370.086 506.711 369.93 506.133 369.617 505.648C369.305 505.164 368.82 504.797 368.164 504.547C367.523 504.281 366.688 504.148 365.656 504.148H359.211L359.258 500.164H366.922L368.539 501.711C370.148 501.82 371.484 502.164 372.547 502.742C373.609 503.32 374.406 504.047 374.938 504.922C375.469 505.797 375.734 506.75 375.734 507.781C375.734 508.969 375.508 510.016 375.055 510.922C374.617 511.828 373.961 512.586 373.086 513.195C372.227 513.789 371.172 514.242 369.922 514.555C368.672 514.852 367.25 515 365.656 515ZM397.648 489.641V494.141H385.273V489.641H397.648ZM402.078 489.641V515H396.43V489.641H402.078ZM383.891 489.641H389.469L388.789 502.18C388.695 504.039 388.508 505.68 388.227 507.102C387.961 508.508 387.602 509.719 387.148 510.734C386.695 511.734 386.141 512.547 385.484 513.172C384.828 513.797 384.062 514.258 383.188 514.555C382.312 514.852 381.328 515 380.234 515H378.477L378.453 510.359L379.344 510.289C379.922 510.242 380.422 510.094 380.844 509.844C381.266 509.578 381.625 509.203 381.922 508.719C382.234 508.234 382.484 507.609 382.672 506.844C382.875 506.078 383.031 505.172 383.141 504.125C383.266 503.078 383.359 501.859 383.422 500.469L383.891 489.641ZM419.258 515.469C417.383 515.469 415.688 515.164 414.172 514.555C412.672 513.93 411.391 513.062 410.328 511.953C409.281 510.844 408.477 509.539 407.914 508.039C407.352 506.539 407.07 504.922 407.07 503.188V502.25C407.07 500.266 407.359 498.469 407.938 496.859C408.516 495.25 409.32 493.875 410.352 492.734C411.383 491.578 412.602 490.695 414.008 490.086C415.414 489.477 416.938 489.172 418.578 489.172C420.391 489.172 421.977 489.477 423.336 490.086C424.695 490.695 425.82 491.555 426.711 492.664C427.617 493.758 428.289 495.062 428.727 496.578C429.18 498.094 429.406 499.766 429.406 501.594V504.008H409.812V499.953H423.828V499.508C423.797 498.492 423.594 497.539 423.219 496.648C422.859 495.758 422.305 495.039 421.555 494.492C420.805 493.945 419.805 493.672 418.555 493.672C417.617 493.672 416.781 493.875 416.047 494.281C415.328 494.672 414.727 495.242 414.242 495.992C413.758 496.742 413.383 497.648 413.117 498.711C412.867 499.758 412.742 500.938 412.742 502.25V503.188C412.742 504.297 412.891 505.328 413.188 506.281C413.5 507.219 413.953 508.039 414.547 508.742C415.141 509.445 415.859 510 416.703 510.406C417.547 510.797 418.508 510.992 419.586 510.992C420.945 510.992 422.156 510.719 423.219 510.172C424.281 509.625 425.203 508.852 425.984 507.852L428.961 510.734C428.414 511.531 427.703 512.297 426.828 513.031C425.953 513.75 424.883 514.336 423.617 514.789C422.367 515.242 420.914 515.469 419.258 515.469ZM451.133 500.234V504.688H438.008V500.234H451.133ZM439.648 489.641V515H434V489.641H439.648ZM455.211 489.641V515H449.562V489.641H455.211ZM478.555 500.234V504.688H465.43V500.234H478.555ZM467.07 489.641V515H461.422V489.641H467.07ZM482.633 489.641V515H476.984V489.641H482.633ZM492.852 497.703H500.328C502.516 497.703 504.375 498.07 505.906 498.805C507.438 499.539 508.602 500.562 509.398 501.875C510.211 503.172 510.617 504.656 510.617 506.328C510.617 507.562 510.391 508.711 509.938 509.773C509.484 510.82 508.812 511.734 507.922 512.516C507.047 513.297 505.969 513.906 504.688 514.344C503.422 514.781 501.969 515 500.328 515H489.102V489.641H494.773V510.523H500.328C501.453 510.523 502.352 510.328 503.023 509.938C503.695 509.547 504.18 509.039 504.477 508.414C504.789 507.789 504.945 507.125 504.945 506.422C504.945 505.703 504.789 505.023 504.477 504.383C504.18 503.742 503.695 503.219 503.023 502.812C502.352 502.406 501.453 502.203 500.328 502.203H492.852V497.703ZM520.602 489.641V515H514.953V489.641H520.602ZM542.352 508.156L549.898 489.641H554.797L544.273 515H540.43L529.93 489.641H534.828L542.352 508.156ZM533.375 489.641V515H527.727V489.641H533.375ZM551.328 515V489.641H557V515H551.328ZM569.164 506.75L579.125 489.641H584.773V515H579.125V497.867L569.164 515H563.516V489.641H569.164V506.75ZM230.047 565.156L237.594 546.641H242.492L231.969 572H228.125L217.625 546.641H222.523L230.047 565.156ZM221.07 546.641V572H215.422V546.641H221.07ZM239.023 572V546.641H244.695V572H239.023ZM265.32 566.914V554.82C265.32 553.914 265.156 553.133 264.828 552.477C264.5 551.82 264 551.312 263.328 550.953C262.672 550.594 261.844 550.414 260.844 550.414C259.922 550.414 259.125 550.57 258.453 550.883C257.781 551.195 257.258 551.617 256.883 552.148C256.508 552.68 256.32 553.281 256.32 553.953H250.695C250.695 552.953 250.938 551.984 251.422 551.047C251.906 550.109 252.609 549.273 253.531 548.539C254.453 547.805 255.555 547.227 256.836 546.805C258.117 546.383 259.555 546.172 261.148 546.172C263.055 546.172 264.742 546.492 266.211 547.133C267.695 547.773 268.859 548.742 269.703 550.039C270.562 551.32 270.992 552.93 270.992 554.867V566.141C270.992 567.297 271.07 568.336 271.227 569.258C271.398 570.164 271.641 570.953 271.953 571.625V572H266.164C265.898 571.391 265.688 570.617 265.531 569.68C265.391 568.727 265.32 567.805 265.32 566.914ZM266.141 556.578L266.188 560.07H262.133C261.086 560.07 260.164 560.172 259.367 560.375C258.57 560.562 257.906 560.844 257.375 561.219C256.844 561.594 256.445 562.047 256.18 562.578C255.914 563.109 255.781 563.711 255.781 564.383C255.781 565.055 255.938 565.672 256.25 566.234C256.562 566.781 257.016 567.211 257.609 567.523C258.219 567.836 258.953 567.992 259.812 567.992C260.969 567.992 261.977 567.758 262.836 567.289C263.711 566.805 264.398 566.219 264.898 565.531C265.398 564.828 265.664 564.164 265.695 563.539L267.523 566.047C267.336 566.688 267.016 567.375 266.562 568.109C266.109 568.844 265.516 569.547 264.781 570.219C264.062 570.875 263.195 571.414 262.18 571.836C261.18 572.258 260.023 572.469 258.711 572.469C257.055 572.469 255.578 572.141 254.281 571.484C252.984 570.812 251.969 569.914 251.234 568.789C250.5 567.648 250.133 566.359 250.133 564.922C250.133 563.578 250.383 562.391 250.883 561.359C251.398 560.312 252.148 559.438 253.133 558.734C254.133 558.031 255.352 557.5 256.789 557.141C258.227 556.766 259.867 556.578 261.711 556.578H266.141ZM288.289 546.641V572H282.617V546.641H288.289ZM296.609 546.641V551.094H274.438V546.641H296.609ZM309.828 572.469C307.953 572.469 306.258 572.164 304.742 571.555C303.242 570.93 301.961 570.062 300.898 568.953C299.852 567.844 299.047 566.539 298.484 565.039C297.922 563.539 297.641 561.922 297.641 560.188V559.25C297.641 557.266 297.93 555.469 298.508 553.859C299.086 552.25 299.891 550.875 300.922 549.734C301.953 548.578 303.172 547.695 304.578 547.086C305.984 546.477 307.508 546.172 309.148 546.172C310.961 546.172 312.547 546.477 313.906 547.086C315.266 547.695 316.391 548.555 317.281 549.664C318.188 550.758 318.859 552.062 319.297 553.578C319.75 555.094 319.977 556.766 319.977 558.594V561.008H300.383V556.953H314.398V556.508C314.367 555.492 314.164 554.539 313.789 553.648C313.43 552.758 312.875 552.039 312.125 551.492C311.375 550.945 310.375 550.672 309.125 550.672C308.188 550.672 307.352 550.875 306.617 551.281C305.898 551.672 305.297 552.242 304.812 552.992C304.328 553.742 303.953 554.648 303.688 555.711C303.438 556.758 303.312 557.938 303.312 559.25V560.188C303.312 561.297 303.461 562.328 303.758 563.281C304.07 564.219 304.523 565.039 305.117 565.742C305.711 566.445 306.43 567 307.273 567.406C308.117 567.797 309.078 567.992 310.156 567.992C311.516 567.992 312.727 567.719 313.789 567.172C314.852 566.625 315.773 565.852 316.555 564.852L319.531 567.734C318.984 568.531 318.273 569.297 317.398 570.031C316.523 570.75 315.453 571.336 314.188 571.789C312.938 572.242 311.484 572.469 309.828 572.469ZM330.055 551.516V581.75H324.406V546.641H329.609L330.055 551.516ZM346.578 559.086V559.578C346.578 561.422 346.359 563.133 345.922 564.711C345.5 566.273 344.867 567.641 344.023 568.812C343.195 569.969 342.172 570.867 340.953 571.508C339.734 572.148 338.328 572.469 336.734 572.469C335.156 572.469 333.773 572.18 332.586 571.602C331.414 571.008 330.422 570.172 329.609 569.094C328.797 568.016 328.141 566.75 327.641 565.297C327.156 563.828 326.812 562.219 326.609 560.469V558.57C326.812 556.711 327.156 555.023 327.641 553.508C328.141 551.992 328.797 550.688 329.609 549.594C330.422 548.5 331.414 547.656 332.586 547.062C333.758 546.469 335.125 546.172 336.688 546.172C338.281 546.172 339.695 546.484 340.93 547.109C342.164 547.719 343.203 548.594 344.047 549.734C344.891 550.859 345.523 552.219 345.945 553.812C346.367 555.391 346.578 557.148 346.578 559.086ZM340.93 559.578V559.086C340.93 557.914 340.82 556.828 340.602 555.828C340.383 554.812 340.039 553.922 339.57 553.156C339.102 552.391 338.5 551.797 337.766 551.375C337.047 550.938 336.18 550.719 335.164 550.719C334.164 550.719 333.305 550.891 332.586 551.234C331.867 551.562 331.266 552.023 330.781 552.617C330.297 553.211 329.922 553.906 329.656 554.703C329.391 555.484 329.203 556.336 329.094 557.258V561.805C329.281 562.93 329.602 563.961 330.055 564.898C330.508 565.836 331.148 566.586 331.977 567.148C332.82 567.695 333.898 567.969 335.211 567.969C336.227 567.969 337.094 567.75 337.812 567.312C338.531 566.875 339.117 566.273 339.57 565.508C340.039 564.727 340.383 563.828 340.602 562.812C340.82 561.797 340.93 560.719 340.93 559.578ZM357.219 563.75L367.18 546.641H372.828V572H367.18V554.867L357.219 572H351.57V546.641H357.219V563.75ZM393.102 566.914V554.82C393.102 553.914 392.938 553.133 392.609 552.477C392.281 551.82 391.781 551.312 391.109 550.953C390.453 550.594 389.625 550.414 388.625 550.414C387.703 550.414 386.906 550.57 386.234 550.883C385.562 551.195 385.039 551.617 384.664 552.148C384.289 552.68 384.102 553.281 384.102 553.953H378.477C378.477 552.953 378.719 551.984 379.203 551.047C379.688 550.109 380.391 549.273 381.312 548.539C382.234 547.805 383.336 547.227 384.617 546.805C385.898 546.383 387.336 546.172 388.93 546.172C390.836 546.172 392.523 546.492 393.992 547.133C395.477 547.773 396.641 548.742 397.484 550.039C398.344 551.32 398.773 552.93 398.773 554.867V566.141C398.773 567.297 398.852 568.336 399.008 569.258C399.18 570.164 399.422 570.953 399.734 571.625V572H393.945C393.68 571.391 393.469 570.617 393.312 569.68C393.172 568.727 393.102 567.805 393.102 566.914ZM393.922 556.578L393.969 560.07H389.914C388.867 560.07 387.945 560.172 387.148 560.375C386.352 560.562 385.688 560.844 385.156 561.219C384.625 561.594 384.227 562.047 383.961 562.578C383.695 563.109 383.562 563.711 383.562 564.383C383.562 565.055 383.719 565.672 384.031 566.234C384.344 566.781 384.797 567.211 385.391 567.523C386 567.836 386.734 567.992 387.594 567.992C388.75 567.992 389.758 567.758 390.617 567.289C391.492 566.805 392.18 566.219 392.68 565.531C393.18 564.828 393.445 564.164 393.477 563.539L395.305 566.047C395.117 566.688 394.797 567.375 394.344 568.109C393.891 568.844 393.297 569.547 392.562 570.219C391.844 570.875 390.977 571.414 389.961 571.836C388.961 572.258 387.805 572.469 386.492 572.469C384.836 572.469 383.359 572.141 382.062 571.484C380.766 570.812 379.75 569.914 379.016 568.789C378.281 567.648 377.914 566.359 377.914 564.922C377.914 563.578 378.164 562.391 378.664 561.359C379.18 560.312 379.93 559.438 380.914 558.734C381.914 558.031 383.133 557.5 384.57 557.141C386.008 556.766 387.648 556.578 389.492 556.578H393.922ZM421.719 546.641V551.141H409.344V546.641H421.719ZM426.148 546.641V572H420.5V546.641H426.148ZM407.961 546.641H413.539L412.859 559.18C412.766 561.039 412.578 562.68 412.297 564.102C412.031 565.508 411.672 566.719 411.219 567.734C410.766 568.734 410.211 569.547 409.555 570.172C408.898 570.797 408.133 571.258 407.258 571.555C406.383 571.852 405.398 572 404.305 572H402.547L402.523 567.359L403.414 567.289C403.992 567.242 404.492 567.094 404.914 566.844C405.336 566.578 405.695 566.203 405.992 565.719C406.305 565.234 406.555 564.609 406.742 563.844C406.945 563.078 407.102 562.172 407.211 561.125C407.336 560.078 407.43 558.859 407.492 557.469L407.961 546.641ZM446.445 566.914V554.82C446.445 553.914 446.281 553.133 445.953 552.477C445.625 551.82 445.125 551.312 444.453 550.953C443.797 550.594 442.969 550.414 441.969 550.414C441.047 550.414 440.25 550.57 439.578 550.883C438.906 551.195 438.383 551.617 438.008 552.148C437.633 552.68 437.445 553.281 437.445 553.953H431.82C431.82 552.953 432.062 551.984 432.547 551.047C433.031 550.109 433.734 549.273 434.656 548.539C435.578 547.805 436.68 547.227 437.961 546.805C439.242 546.383 440.68 546.172 442.273 546.172C444.18 546.172 445.867 546.492 447.336 547.133C448.82 547.773 449.984 548.742 450.828 550.039C451.688 551.32 452.117 552.93 452.117 554.867V566.141C452.117 567.297 452.195 568.336 452.352 569.258C452.523 570.164 452.766 570.953 453.078 571.625V572H447.289C447.023 571.391 446.812 570.617 446.656 569.68C446.516 568.727 446.445 567.805 446.445 566.914ZM447.266 556.578L447.312 560.07H443.258C442.211 560.07 441.289 560.172 440.492 560.375C439.695 560.562 439.031 560.844 438.5 561.219C437.969 561.594 437.57 562.047 437.305 562.578C437.039 563.109 436.906 563.711 436.906 564.383C436.906 565.055 437.062 565.672 437.375 566.234C437.688 566.781 438.141 567.211 438.734 567.523C439.344 567.836 440.078 567.992 440.938 567.992C442.094 567.992 443.102 567.758 443.961 567.289C444.836 566.805 445.523 566.219 446.023 565.531C446.523 564.828 446.789 564.164 446.82 563.539L448.648 566.047C448.461 566.688 448.141 567.375 447.688 568.109C447.234 568.844 446.641 569.547 445.906 570.219C445.188 570.875 444.32 571.414 443.305 571.836C442.305 572.258 441.148 572.469 439.836 572.469C438.18 572.469 436.703 572.141 435.406 571.484C434.109 570.812 433.094 569.914 432.359 568.789C431.625 567.648 431.258 566.359 431.258 564.922C431.258 563.578 431.508 562.391 432.008 561.359C432.523 560.312 433.273 559.438 434.258 558.734C435.258 558.031 436.477 557.5 437.914 557.141C439.352 556.766 440.992 556.578 442.836 556.578H447.266ZM473.094 565.156L480.641 546.641H485.539L475.016 572H471.172L460.672 546.641H465.57L473.094 565.156ZM464.117 546.641V572H458.469V546.641H464.117ZM482.07 572V546.641H487.742V572H482.07ZM499.906 563.75L509.867 546.641H515.516V572H509.867V554.867L499.906 572H494.258V546.641H499.906V563.75ZM532.062 561.945H526.836C526.852 560.492 526.977 559.273 527.211 558.289C527.445 557.289 527.836 556.383 528.383 555.57C528.945 554.758 529.688 553.898 530.609 552.992C531.328 552.305 531.977 551.656 532.555 551.047C533.133 550.422 533.594 549.766 533.938 549.078C534.281 548.375 534.453 547.57 534.453 546.664C534.453 545.68 534.289 544.844 533.961 544.156C533.633 543.469 533.148 542.945 532.508 542.586C531.883 542.227 531.102 542.047 530.164 542.047C529.383 542.047 528.648 542.203 527.961 542.516C527.273 542.812 526.719 543.281 526.297 543.922C525.875 544.547 525.648 545.375 525.617 546.406H519.969C520 544.438 520.469 542.781 521.375 541.438C522.281 540.094 523.5 539.086 525.031 538.414C526.562 537.742 528.273 537.406 530.164 537.406C532.258 537.406 534.047 537.766 535.531 538.484C537.016 539.188 538.148 540.219 538.93 541.578C539.727 542.922 540.125 544.547 540.125 546.453C540.125 547.828 539.852 549.078 539.305 550.203C538.758 551.312 538.047 552.352 537.172 553.32C536.297 554.273 535.352 555.227 534.336 556.18C533.461 556.977 532.867 557.844 532.555 558.781C532.242 559.703 532.078 560.758 532.062 561.945ZM526.367 569.258C526.367 568.414 526.656 567.703 527.234 567.125C527.812 566.531 528.602 566.234 529.602 566.234C530.602 566.234 531.391 566.531 531.969 567.125C532.547 567.703 532.836 568.414 532.836 569.258C532.836 570.102 532.547 570.82 531.969 571.414C531.391 571.992 530.602 572.281 529.602 572.281C528.602 572.281 527.812 571.992 527.234 571.414C526.656 570.82 526.367 570.102 526.367 569.258Z" fill="white"/>
<path d="M224.625 691.891V695H207.859V691.891H224.625ZM208.828 691.891V700.594H205.078L204.938 691.891H208.828ZM227.656 691.891L227.422 700.578H223.734V691.891H227.656ZM221.875 672.25V675.375H211.375V672.25H221.875ZM224.875 672.25V695H220.969V672.25H224.875ZM210.594 672.25H214.516L213.969 681.469C213.885 682.927 213.734 684.24 213.516 685.406C213.297 686.573 213.031 687.62 212.719 688.547C212.417 689.464 212.073 690.276 211.688 690.984C211.302 691.682 210.891 692.286 210.453 692.797C210.016 693.307 209.568 693.745 209.109 694.109C208.661 694.464 208.219 694.76 207.781 695H205.688V691.891H206.703C206.984 691.63 207.297 691.255 207.641 690.766C207.984 690.266 208.318 689.615 208.641 688.812C208.974 688 209.266 686.995 209.516 685.797C209.766 684.599 209.938 683.156 210.031 681.469L210.594 672.25ZM241.859 678.094V681.094H233.609V678.094H241.859ZM244.812 678.094V695H241.047V678.094H244.812ZM232.688 678.094H236.406L235.953 686.453C235.891 687.693 235.766 688.786 235.578 689.734C235.401 690.672 235.161 691.479 234.859 692.156C234.557 692.823 234.188 693.365 233.75 693.781C233.312 694.198 232.802 694.505 232.219 694.703C231.635 694.901 230.979 695 230.25 695H229.078L229.062 691.906L229.656 691.859C230.042 691.828 230.375 691.729 230.656 691.562C230.938 691.385 231.177 691.135 231.375 690.812C231.583 690.49 231.75 690.073 231.875 689.562C232.01 689.052 232.115 688.448 232.188 687.75C232.271 687.052 232.333 686.24 232.375 685.312L232.688 678.094ZM252.375 686.734H256.281L251.484 695H247.594L252.375 686.734ZM255.125 678.094H262.375V695H258.625V681.062H255.125C254.417 681.062 253.833 681.188 253.375 681.438C252.917 681.677 252.578 681.995 252.359 682.391C252.141 682.776 252.031 683.172 252.031 683.578C252.031 683.984 252.13 684.375 252.328 684.75C252.536 685.125 252.854 685.432 253.281 685.672C253.719 685.911 254.266 686.031 254.922 686.031H259.891V688.781H254.922C253.88 688.781 252.948 688.651 252.125 688.391C251.302 688.12 250.604 687.75 250.031 687.281C249.458 686.802 249.021 686.245 248.719 685.609C248.417 684.964 248.266 684.26 248.266 683.5C248.266 682.719 248.422 682 248.734 681.344C249.047 680.688 249.495 680.115 250.078 679.625C250.672 679.135 251.391 678.76 252.234 678.5C253.089 678.229 254.052 678.094 255.125 678.094ZM273.812 686.734V686.375C273.812 685.156 273.99 684.026 274.344 682.984C274.698 681.932 275.208 681.021 275.875 680.25C276.552 679.469 277.375 678.865 278.344 678.438C279.323 678 280.427 677.781 281.656 677.781C282.896 677.781 284 678 284.969 678.438C285.948 678.865 286.776 679.469 287.453 680.25C288.13 681.021 288.646 681.932 289 682.984C289.354 684.026 289.531 685.156 289.531 686.375V686.734C289.531 687.953 289.354 689.083 289 690.125C288.646 691.167 288.13 692.078 287.453 692.859C286.776 693.63 285.953 694.234 284.984 694.672C284.016 695.099 282.917 695.312 281.688 695.312C280.448 695.312 279.339 695.099 278.359 694.672C277.391 694.234 276.568 693.63 275.891 692.859C275.214 692.078 274.698 691.167 274.344 690.125C273.99 689.083 273.812 687.953 273.812 686.734ZM277.578 686.375V686.734C277.578 687.495 277.656 688.214 277.812 688.891C277.969 689.568 278.214 690.161 278.547 690.672C278.88 691.182 279.307 691.583 279.828 691.875C280.349 692.167 280.969 692.312 281.688 692.312C282.385 692.312 282.99 692.167 283.5 691.875C284.021 691.583 284.448 691.182 284.781 690.672C285.115 690.161 285.359 689.568 285.516 688.891C285.682 688.214 285.766 687.495 285.766 686.734V686.375C285.766 685.625 285.682 684.917 285.516 684.25C285.359 683.573 285.109 682.974 284.766 682.453C284.432 681.932 284.005 681.526 283.484 681.234C282.974 680.932 282.365 680.781 281.656 680.781C280.948 680.781 280.333 680.932 279.812 681.234C279.302 681.526 278.88 681.932 278.547 682.453C278.214 682.974 277.969 683.573 277.812 684.25C277.656 684.917 277.578 685.625 277.578 686.375ZM292.812 695V678.094H296.578V692H303.203V678.094H306.984V695H292.812ZM309.281 692.016L308.984 700.016H305.531V695H303.5V692.016H309.281ZM319.391 695.312C318.141 695.312 317.01 695.109 316 694.703C315 694.286 314.146 693.708 313.438 692.969C312.74 692.229 312.203 691.359 311.828 690.359C311.453 689.359 311.266 688.281 311.266 687.125V686.5C311.266 685.177 311.458 683.979 311.844 682.906C312.229 681.833 312.766 680.917 313.453 680.156C314.141 679.385 314.953 678.797 315.891 678.391C316.828 677.984 317.844 677.781 318.938 677.781C320.146 677.781 321.203 677.984 322.109 678.391C323.016 678.797 323.766 679.37 324.359 680.109C324.964 680.839 325.411 681.708 325.703 682.719C326.005 683.729 326.156 684.844 326.156 686.062V687.672H313.094V684.969H322.438V684.672C322.417 683.995 322.281 683.359 322.031 682.766C321.792 682.172 321.422 681.693 320.922 681.328C320.422 680.964 319.755 680.781 318.922 680.781C318.297 680.781 317.74 680.917 317.25 681.188C316.771 681.448 316.37 681.828 316.047 682.328C315.724 682.828 315.474 683.432 315.297 684.141C315.13 684.839 315.047 685.625 315.047 686.5V687.125C315.047 687.865 315.146 688.552 315.344 689.188C315.552 689.812 315.854 690.359 316.25 690.828C316.646 691.297 317.125 691.667 317.688 691.938C318.25 692.198 318.891 692.328 319.609 692.328C320.516 692.328 321.323 692.146 322.031 691.781C322.74 691.417 323.354 690.901 323.875 690.234L325.859 692.156C325.495 692.688 325.021 693.198 324.438 693.688C323.854 694.167 323.141 694.557 322.297 694.859C321.464 695.161 320.495 695.312 319.391 695.312ZM340.641 685.156V688.125H331.891V685.156H340.641ZM332.984 678.094V695H329.219V678.094H332.984ZM343.359 678.094V695H339.594V678.094H343.359ZM351.438 678.094V695H347.672V678.094H351.438ZM362.469 678.094L354.859 688.266H350.562L350.062 684.859H353.203L357.766 678.094H362.469ZM358.062 695L352.969 687.625L355.938 685.484L363.016 695H358.062ZM368.953 689.5L375.594 678.094H379.359V695H375.594V683.578L368.953 695H365.188V678.094H368.953V689.5ZM399.531 687.766H394.125L394.094 685.109H398.531C399.26 685.109 399.859 685.036 400.328 684.891C400.807 684.745 401.161 684.526 401.391 684.234C401.62 683.932 401.734 683.568 401.734 683.141C401.734 682.786 401.667 682.479 401.531 682.219C401.396 681.948 401.188 681.729 400.906 681.562C400.635 681.385 400.292 681.26 399.875 681.188C399.469 681.104 398.995 681.062 398.453 681.062H395.375V695H391.609V678.094H398.453C399.536 678.094 400.51 678.188 401.375 678.375C402.25 678.562 402.995 678.849 403.609 679.234C404.224 679.62 404.693 680.109 405.016 680.703C405.349 681.286 405.516 681.974 405.516 682.766C405.516 683.286 405.401 683.776 405.172 684.234C404.953 684.693 404.625 685.099 404.188 685.453C403.75 685.807 403.214 686.099 402.578 686.328C401.943 686.547 401.214 686.682 400.391 686.734L399.531 687.766ZM399.531 695H393.031L394.531 692.031H399.531C400.198 692.031 400.75 691.948 401.188 691.781C401.625 691.615 401.948 691.375 402.156 691.062C402.375 690.74 402.484 690.359 402.484 689.922C402.484 689.474 402.38 689.089 402.172 688.766C401.964 688.443 401.641 688.198 401.203 688.031C400.776 687.854 400.219 687.766 399.531 687.766H395.234L395.266 685.109H400.375L401.453 686.141C402.526 686.214 403.417 686.443 404.125 686.828C404.833 687.214 405.365 687.698 405.719 688.281C406.073 688.865 406.25 689.5 406.25 690.188C406.25 690.979 406.099 691.677 405.797 692.281C405.505 692.885 405.068 693.391 404.484 693.797C403.911 694.193 403.208 694.495 402.375 694.703C401.542 694.901 400.594 695 399.531 695ZM412.297 683.469H417.281C418.74 683.469 419.979 683.714 421 684.203C422.021 684.693 422.797 685.375 423.328 686.25C423.87 687.115 424.141 688.104 424.141 689.219C424.141 690.042 423.99 690.807 423.688 691.516C423.385 692.214 422.938 692.823 422.344 693.344C421.76 693.865 421.042 694.271 420.188 694.562C419.344 694.854 418.375 695 417.281 695H409.797V678.094H413.578V692.016H417.281C418.031 692.016 418.63 691.885 419.078 691.625C419.526 691.365 419.849 691.026 420.047 690.609C420.255 690.193 420.359 689.75 420.359 689.281C420.359 688.802 420.255 688.349 420.047 687.922C419.849 687.495 419.526 687.146 419.078 686.875C418.63 686.604 418.031 686.469 417.281 686.469H412.297V683.469ZM430.797 678.094V695H427.031V678.094H430.797ZM445.859 670.688H448.906C448.906 671.615 448.776 672.38 448.516 672.984C448.266 673.578 447.891 674.068 447.391 674.453C446.901 674.828 446.292 675.13 445.562 675.359C444.844 675.589 444.01 675.797 443.062 675.984C442.188 676.172 441.396 676.469 440.688 676.875C439.99 677.271 439.401 677.828 438.922 678.547C438.453 679.255 438.115 680.167 437.906 681.281C437.698 682.396 437.635 683.755 437.719 685.359V686.422L434.734 686.688V685.625C434.734 683.635 434.917 681.901 435.281 680.422C435.646 678.943 436.161 677.698 436.828 676.688C437.505 675.667 438.307 674.854 439.234 674.25C440.172 673.646 441.214 673.229 442.359 673C443.141 672.833 443.792 672.667 444.312 672.5C444.833 672.323 445.219 672.099 445.469 671.828C445.729 671.547 445.859 671.167 445.859 670.688ZM443.219 679.047C444.344 679.047 445.344 679.245 446.219 679.641C447.094 680.026 447.833 680.568 448.438 681.266C449.042 681.964 449.5 682.786 449.812 683.734C450.135 684.682 450.297 685.714 450.297 686.828V687.172C450.297 688.339 450.125 689.417 449.781 690.406C449.438 691.396 448.932 692.26 448.266 693C447.599 693.729 446.781 694.302 445.812 694.719C444.854 695.125 443.755 695.328 442.516 695.328C441.286 695.328 440.188 695.115 439.219 694.688C438.25 694.26 437.432 693.667 436.766 692.906C436.099 692.135 435.594 691.234 435.25 690.203C434.906 689.172 434.734 688.047 434.734 686.828V686.484C434.724 686.266 434.781 686.052 434.906 685.844C435.042 685.635 435.203 685.411 435.391 685.172C435.578 684.932 435.745 684.656 435.891 684.344C436.411 683.292 437.026 682.37 437.734 681.578C438.443 680.786 439.25 680.167 440.156 679.719C441.073 679.271 442.094 679.047 443.219 679.047ZM442.484 682.031C441.547 682.031 440.781 682.255 440.188 682.703C439.604 683.141 439.172 683.724 438.891 684.453C438.62 685.182 438.484 685.974 438.484 686.828V687.172C438.484 687.87 438.562 688.531 438.719 689.156C438.875 689.781 439.109 690.333 439.422 690.812C439.745 691.281 440.161 691.651 440.672 691.922C441.193 692.193 441.807 692.328 442.516 692.328C443.234 692.328 443.844 692.193 444.344 691.922C444.854 691.651 445.266 691.281 445.578 690.812C445.901 690.333 446.135 689.781 446.281 689.156C446.438 688.531 446.516 687.87 446.516 687.172V686.828C446.516 686.182 446.438 685.573 446.281 685C446.135 684.427 445.901 683.922 445.578 683.484C445.255 683.036 444.839 682.682 444.328 682.422C443.818 682.161 443.203 682.031 442.484 682.031ZM460.703 695.312C459.453 695.312 458.323 695.109 457.312 694.703C456.312 694.286 455.458 693.708 454.75 692.969C454.052 692.229 453.516 691.359 453.141 690.359C452.766 689.359 452.578 688.281 452.578 687.125V686.5C452.578 685.177 452.771 683.979 453.156 682.906C453.542 681.833 454.078 680.917 454.766 680.156C455.453 679.385 456.266 678.797 457.203 678.391C458.141 677.984 459.156 677.781 460.25 677.781C461.458 677.781 462.516 677.984 463.422 678.391C464.328 678.797 465.078 679.37 465.672 680.109C466.276 680.839 466.724 681.708 467.016 682.719C467.318 683.729 467.469 684.844 467.469 686.062V687.672H454.406V684.969H463.75V684.672C463.729 683.995 463.594 683.359 463.344 682.766C463.104 682.172 462.734 681.693 462.234 681.328C461.734 680.964 461.068 680.781 460.234 680.781C459.609 680.781 459.052 680.917 458.562 681.188C458.083 681.448 457.682 681.828 457.359 682.328C457.036 682.828 456.786 683.432 456.609 684.141C456.443 684.839 456.359 685.625 456.359 686.5V687.125C456.359 687.865 456.458 688.552 456.656 689.188C456.865 689.812 457.167 690.359 457.562 690.828C457.958 691.297 458.438 691.667 459 691.938C459.562 692.198 460.203 692.328 460.922 692.328C461.828 692.328 462.635 692.146 463.344 691.781C464.052 691.417 464.667 690.901 465.188 690.234L467.172 692.156C466.807 692.688 466.333 693.198 465.75 693.688C465.167 694.167 464.453 694.557 463.609 694.859C462.776 695.161 461.807 695.312 460.703 695.312ZM474.188 681.344V701.5H470.422V678.094H473.891L474.188 681.344ZM485.203 686.391V686.719C485.203 687.948 485.057 689.089 484.766 690.141C484.484 691.182 484.062 692.094 483.5 692.875C482.948 693.646 482.266 694.245 481.453 694.672C480.641 695.099 479.703 695.312 478.641 695.312C477.589 695.312 476.667 695.12 475.875 694.734C475.094 694.339 474.432 693.781 473.891 693.062C473.349 692.344 472.911 691.5 472.578 690.531C472.255 689.552 472.026 688.479 471.891 687.312V686.047C472.026 684.807 472.255 683.682 472.578 682.672C472.911 681.661 473.349 680.792 473.891 680.062C474.432 679.333 475.094 678.771 475.875 678.375C476.656 677.979 477.568 677.781 478.609 677.781C479.672 677.781 480.615 677.99 481.438 678.406C482.26 678.812 482.953 679.396 483.516 680.156C484.078 680.906 484.5 681.812 484.781 682.875C485.062 683.927 485.203 685.099 485.203 686.391ZM481.438 686.719V686.391C481.438 685.609 481.365 684.885 481.219 684.219C481.073 683.542 480.844 682.948 480.531 682.438C480.219 681.927 479.818 681.531 479.328 681.25C478.849 680.958 478.271 680.812 477.594 680.812C476.927 680.812 476.354 680.927 475.875 681.156C475.396 681.375 474.995 681.682 474.672 682.078C474.349 682.474 474.099 682.938 473.922 683.469C473.745 683.99 473.62 684.557 473.547 685.172V688.203C473.672 688.953 473.885 689.641 474.188 690.266C474.49 690.891 474.917 691.391 475.469 691.766C476.031 692.13 476.75 692.312 477.625 692.312C478.302 692.312 478.88 692.167 479.359 691.875C479.839 691.583 480.229 691.182 480.531 690.672C480.844 690.151 481.073 689.552 481.219 688.875C481.365 688.198 481.438 687.479 481.438 686.719ZM492.297 689.5L498.938 678.094H502.703V695H498.938V683.578L492.297 695H488.531V678.094H492.297V689.5ZM514.531 678.094V695H510.75V678.094H514.531ZM520.078 678.094V681.062H505.297V678.094H520.078ZM528.891 695.312C527.641 695.312 526.51 695.109 525.5 694.703C524.5 694.286 523.646 693.708 522.938 692.969C522.24 692.229 521.703 691.359 521.328 690.359C520.953 689.359 520.766 688.281 520.766 687.125V686.5C520.766 685.177 520.958 683.979 521.344 682.906C521.729 681.833 522.266 680.917 522.953 680.156C523.641 679.385 524.453 678.797 525.391 678.391C526.328 677.984 527.344 677.781 528.438 677.781C529.646 677.781 530.703 677.984 531.609 678.391C532.516 678.797 533.266 679.37 533.859 680.109C534.464 680.839 534.911 681.708 535.203 682.719C535.505 683.729 535.656 684.844 535.656 686.062V687.672H522.594V684.969H531.938V684.672C531.917 683.995 531.781 683.359 531.531 682.766C531.292 682.172 530.922 681.693 530.422 681.328C529.922 680.964 529.255 680.781 528.422 680.781C527.797 680.781 527.24 680.917 526.75 681.188C526.271 681.448 525.87 681.828 525.547 682.328C525.224 682.828 524.974 683.432 524.797 684.141C524.63 684.839 524.547 685.625 524.547 686.5V687.125C524.547 687.865 524.646 688.552 524.844 689.188C525.052 689.812 525.354 690.359 525.75 690.828C526.146 691.297 526.625 691.667 527.188 691.938C527.75 692.198 528.391 692.328 529.109 692.328C530.016 692.328 530.823 692.146 531.531 691.781C532.24 691.417 532.854 690.901 533.375 690.234L535.359 692.156C534.995 692.688 534.521 693.198 533.938 693.688C533.354 694.167 532.641 694.557 531.797 694.859C530.964 695.161 529.995 695.312 528.891 695.312ZM313.844 716.094V719.094H305.5V716.094H313.844ZM306.391 716.094V733H302.625V716.094H306.391ZM316.797 716.094V733H313.016V716.094H316.797ZM324.562 719.344V739.5H320.797V716.094H324.266L324.562 719.344ZM335.578 724.391V724.719C335.578 725.948 335.432 727.089 335.141 728.141C334.859 729.182 334.438 730.094 333.875 730.875C333.323 731.646 332.641 732.245 331.828 732.672C331.016 733.099 330.078 733.312 329.016 733.312C327.964 733.312 327.042 733.12 326.25 732.734C325.469 732.339 324.807 731.781 324.266 731.062C323.724 730.344 323.286 729.5 322.953 728.531C322.63 727.552 322.401 726.479 322.266 725.312V724.047C322.401 722.807 322.63 721.682 322.953 720.672C323.286 719.661 323.724 718.792 324.266 718.062C324.807 717.333 325.469 716.771 326.25 716.375C327.031 715.979 327.943 715.781 328.984 715.781C330.047 715.781 330.99 715.99 331.812 716.406C332.635 716.812 333.328 717.396 333.891 718.156C334.453 718.906 334.875 719.812 335.156 720.875C335.438 721.927 335.578 723.099 335.578 724.391ZM331.812 724.719V724.391C331.812 723.609 331.74 722.885 331.594 722.219C331.448 721.542 331.219 720.948 330.906 720.438C330.594 719.927 330.193 719.531 329.703 719.25C329.224 718.958 328.646 718.812 327.969 718.812C327.302 718.812 326.729 718.927 326.25 719.156C325.771 719.375 325.37 719.682 325.047 720.078C324.724 720.474 324.474 720.938 324.297 721.469C324.12 721.99 323.995 722.557 323.922 723.172V726.203C324.047 726.953 324.26 727.641 324.562 728.266C324.865 728.891 325.292 729.391 325.844 729.766C326.406 730.13 327.125 730.312 328 730.312C328.677 730.312 329.255 730.167 329.734 729.875C330.214 729.583 330.604 729.182 330.906 728.672C331.219 728.151 331.448 727.552 331.594 726.875C331.74 726.198 331.812 725.479 331.812 724.719ZM346.234 733.312C344.984 733.312 343.854 733.109 342.844 732.703C341.844 732.286 340.99 731.708 340.281 730.969C339.583 730.229 339.047 729.359 338.672 728.359C338.297 727.359 338.109 726.281 338.109 725.125V724.5C338.109 723.177 338.302 721.979 338.688 720.906C339.073 719.833 339.609 718.917 340.297 718.156C340.984 717.385 341.797 716.797 342.734 716.391C343.672 715.984 344.688 715.781 345.781 715.781C346.99 715.781 348.047 715.984 348.953 716.391C349.859 716.797 350.609 717.37 351.203 718.109C351.807 718.839 352.255 719.708 352.547 720.719C352.849 721.729 353 722.844 353 724.062V725.672H339.938V722.969H349.281V722.672C349.26 721.995 349.125 721.359 348.875 720.766C348.635 720.172 348.266 719.693 347.766 719.328C347.266 718.964 346.599 718.781 345.766 718.781C345.141 718.781 344.583 718.917 344.094 719.188C343.615 719.448 343.214 719.828 342.891 720.328C342.568 720.828 342.318 721.432 342.141 722.141C341.974 722.839 341.891 723.625 341.891 724.5V725.125C341.891 725.865 341.99 726.552 342.188 727.188C342.396 727.812 342.698 728.359 343.094 728.828C343.49 729.297 343.969 729.667 344.531 729.938C345.094 730.198 345.734 730.328 346.453 730.328C347.359 730.328 348.167 730.146 348.875 729.781C349.583 729.417 350.198 728.901 350.719 728.234L352.703 730.156C352.339 730.688 351.865 731.198 351.281 731.688C350.698 732.167 349.984 732.557 349.141 732.859C348.307 733.161 347.339 733.312 346.234 733.312ZM367.281 716.094V719.094H358.938V716.094H367.281ZM359.828 716.094V733H356.062V716.094H359.828ZM370.234 716.094V733H366.453V716.094H370.234ZM383.75 729.609V721.547C383.75 720.943 383.641 720.422 383.422 719.984C383.203 719.547 382.87 719.208 382.422 718.969C381.984 718.729 381.432 718.609 380.766 718.609C380.151 718.609 379.62 718.714 379.172 718.922C378.724 719.13 378.375 719.411 378.125 719.766C377.875 720.12 377.75 720.521 377.75 720.969H374C374 720.302 374.161 719.656 374.484 719.031C374.807 718.406 375.276 717.849 375.891 717.359C376.505 716.87 377.24 716.484 378.094 716.203C378.948 715.922 379.906 715.781 380.969 715.781C382.24 715.781 383.365 715.995 384.344 716.422C385.333 716.849 386.109 717.495 386.672 718.359C387.245 719.214 387.531 720.286 387.531 721.578V729.094C387.531 729.865 387.583 730.557 387.688 731.172C387.802 731.776 387.964 732.302 388.172 732.75V733H384.312C384.135 732.594 383.995 732.078 383.891 731.453C383.797 730.818 383.75 730.203 383.75 729.609ZM384.297 722.719L384.328 725.047H381.625C380.927 725.047 380.312 725.115 379.781 725.25C379.25 725.375 378.807 725.562 378.453 725.812C378.099 726.062 377.833 726.365 377.656 726.719C377.479 727.073 377.391 727.474 377.391 727.922C377.391 728.37 377.495 728.781 377.703 729.156C377.911 729.521 378.214 729.807 378.609 730.016C379.016 730.224 379.505 730.328 380.078 730.328C380.849 730.328 381.521 730.172 382.094 729.859C382.677 729.536 383.135 729.146 383.469 728.688C383.802 728.219 383.979 727.776 384 727.359L385.219 729.031C385.094 729.458 384.88 729.917 384.578 730.406C384.276 730.896 383.88 731.365 383.391 731.812C382.911 732.25 382.333 732.609 381.656 732.891C380.99 733.172 380.219 733.312 379.344 733.312C378.24 733.312 377.255 733.094 376.391 732.656C375.526 732.208 374.849 731.609 374.359 730.859C373.87 730.099 373.625 729.24 373.625 728.281C373.625 727.385 373.792 726.594 374.125 725.906C374.469 725.208 374.969 724.625 375.625 724.156C376.292 723.688 377.104 723.333 378.062 723.094C379.021 722.844 380.115 722.719 381.344 722.719H384.297ZM395.25 719.344V739.5H391.484V716.094H394.953L395.25 719.344ZM406.266 724.391V724.719C406.266 725.948 406.12 727.089 405.828 728.141C405.547 729.182 405.125 730.094 404.562 730.875C404.01 731.646 403.328 732.245 402.516 732.672C401.703 733.099 400.766 733.312 399.703 733.312C398.651 733.312 397.729 733.12 396.938 732.734C396.156 732.339 395.495 731.781 394.953 731.062C394.411 730.344 393.974 729.5 393.641 728.531C393.318 727.552 393.089 726.479 392.953 725.312V724.047C393.089 722.807 393.318 721.682 393.641 720.672C393.974 719.661 394.411 718.792 394.953 718.062C395.495 717.333 396.156 716.771 396.938 716.375C397.719 715.979 398.63 715.781 399.672 715.781C400.734 715.781 401.677 715.99 402.5 716.406C403.323 716.812 404.016 717.396 404.578 718.156C405.141 718.906 405.562 719.812 405.844 720.875C406.125 721.927 406.266 723.099 406.266 724.391ZM402.5 724.719V724.391C402.5 723.609 402.427 722.885 402.281 722.219C402.135 721.542 401.906 720.948 401.594 720.438C401.281 719.927 400.88 719.531 400.391 719.25C399.911 718.958 399.333 718.812 398.656 718.812C397.99 718.812 397.417 718.927 396.938 719.156C396.458 719.375 396.057 719.682 395.734 720.078C395.411 720.474 395.161 720.938 394.984 721.469C394.807 721.99 394.682 722.557 394.609 723.172V726.203C394.734 726.953 394.948 727.641 395.25 728.266C395.552 728.891 395.979 729.391 396.531 729.766C397.094 730.13 397.812 730.312 398.688 730.312C399.365 730.312 399.943 730.167 400.422 729.875C400.901 729.583 401.292 729.182 401.594 728.672C401.906 728.151 402.135 727.552 402.281 726.875C402.427 726.198 402.5 725.479 402.5 724.719ZM419 729.609V721.547C419 720.943 418.891 720.422 418.672 719.984C418.453 719.547 418.12 719.208 417.672 718.969C417.234 718.729 416.682 718.609 416.016 718.609C415.401 718.609 414.87 718.714 414.422 718.922C413.974 719.13 413.625 719.411 413.375 719.766C413.125 720.12 413 720.521 413 720.969H409.25C409.25 720.302 409.411 719.656 409.734 719.031C410.057 718.406 410.526 717.849 411.141 717.359C411.755 716.87 412.49 716.484 413.344 716.203C414.198 715.922 415.156 715.781 416.219 715.781C417.49 715.781 418.615 715.995 419.594 716.422C420.583 716.849 421.359 717.495 421.922 718.359C422.495 719.214 422.781 720.286 422.781 721.578V729.094C422.781 729.865 422.833 730.557 422.938 731.172C423.052 731.776 423.214 732.302 423.422 732.75V733H419.562C419.385 732.594 419.245 732.078 419.141 731.453C419.047 730.818 419 730.203 419 729.609ZM419.547 722.719L419.578 725.047H416.875C416.177 725.047 415.562 725.115 415.031 725.25C414.5 725.375 414.057 725.562 413.703 725.812C413.349 726.062 413.083 726.365 412.906 726.719C412.729 727.073 412.641 727.474 412.641 727.922C412.641 728.37 412.745 728.781 412.953 729.156C413.161 729.521 413.464 729.807 413.859 730.016C414.266 730.224 414.755 730.328 415.328 730.328C416.099 730.328 416.771 730.172 417.344 729.859C417.927 729.536 418.385 729.146 418.719 728.688C419.052 728.219 419.229 727.776 419.25 727.359L420.469 729.031C420.344 729.458 420.13 729.917 419.828 730.406C419.526 730.896 419.13 731.365 418.641 731.812C418.161 732.25 417.583 732.609 416.906 732.891C416.24 733.172 415.469 733.312 414.594 733.312C413.49 733.312 412.505 733.094 411.641 732.656C410.776 732.208 410.099 731.609 409.609 730.859C409.12 730.099 408.875 729.24 408.875 728.281C408.875 727.385 409.042 726.594 409.375 725.906C409.719 725.208 410.219 724.625 410.875 724.156C411.542 723.688 412.354 723.333 413.312 723.094C414.271 722.844 415.365 722.719 416.594 722.719H419.547ZM434.312 716.094V733H430.531V716.094H434.312ZM439.859 716.094V719.062H425.078V716.094H439.859Z" fill="#B5B5B5"/>
<path d="M421.27 151.405C421.27 151.405 395.228 224.79 382.86 237.601C376.889 243.622 368.788 247.049 360.309 247.141C351.83 247.232 343.656 243.981 337.557 238.09C331.458 232.2 327.924 224.144 327.72 215.668C327.516 207.191 330.659 198.975 336.468 192.798C348.836 179.979 421.27 151.405 421.27 151.405Z" stroke="#00CA11" stroke-width="12.5" stroke-linejoin="round"/>
<path d="M490.228 313.228C505.971 297.521 518.456 278.858 526.965 258.311C535.474 237.764 539.84 215.739 539.812 193.5C539.812 99.9911 464.009 24.1875 370.5 24.1875C276.991 24.1875 201.188 99.9911 201.188 193.5C201.188 240.254 220.134 282.583 250.772 313.228M370.5 32.25V64.5M490.188 89.8324L465.13 110.126M519.834 219.566L488.414 212.31M221.158 219.566L252.586 212.31M250.812 89.8324L275.87 110.126" stroke="#00CA11" stroke-width="12.5" stroke-linecap="round" stroke-linejoin="round"/>
</svg>
